<svg width="86" height="34" viewBox="0 0 86 34" fill="none" xmlns="http://www.w3.org/2000/svg">
<path d="M6.49949 17L12.7929 23.2932C13.1834 23.6837 13.1834 24.3169 12.7929 24.7074L12.2074 25.2929C11.8168 25.6834 11.1837 25.6834 10.7932 25.2929L3.20714 17.7071C2.8166 17.3166 2.8166 16.6834 3.20714 16.2929L10.7932 8.70708C11.1837 8.31656 11.8168 8.31657 12.2074 8.70708L12.7929 9.29257C13.1834 9.6831 13.1834 10.3163 12.7929 10.7068L6.49949 17Z" fill="#636363"/>
<path d="M30.9176 25.5V8.04545H37.3097C38.5483 8.04545 39.5739 8.25 40.3864 8.65909C41.1989 9.0625 41.8068 9.6108 42.2102 10.304C42.6136 10.9915 42.8153 11.767 42.8153 12.6307C42.8153 13.358 42.6818 13.9716 42.4148 14.4716C42.1477 14.9659 41.7898 15.3636 41.3409 15.6648C40.8977 15.9602 40.4091 16.1761 39.875 16.3125V16.483C40.4545 16.5114 41.0199 16.6989 41.571 17.0455C42.1278 17.3864 42.5881 17.8722 42.9517 18.5028C43.3153 19.1335 43.4972 19.9006 43.4972 20.804C43.4972 21.696 43.2869 22.4972 42.8665 23.2074C42.4517 23.9119 41.8097 24.4716 40.9403 24.8864C40.071 25.2955 38.9602 25.5 37.608 25.5H30.9176ZM33.5511 23.2415H37.3523C38.6136 23.2415 39.517 22.9972 40.0625 22.5085C40.608 22.0199 40.8807 21.4091 40.8807 20.6761C40.8807 20.125 40.7415 19.6193 40.4631 19.1591C40.1847 18.6989 39.7869 18.3324 39.2699 18.0597C38.7585 17.7869 38.1506 17.6506 37.446 17.6506H33.5511V23.2415ZM33.5511 15.5966H37.0795C37.6705 15.5966 38.2017 15.483 38.6733 15.2557C39.1506 15.0284 39.5284 14.7102 39.8068 14.3011C40.0909 13.8864 40.233 13.3977 40.233 12.8352C40.233 12.1136 39.9801 11.5085 39.4744 11.0199C38.9688 10.5312 38.1932 10.2869 37.1477 10.2869H33.5511V15.5966ZM50.2259 25.7898C49.3963 25.7898 48.6463 25.6364 47.9759 25.3295C47.3054 25.017 46.7741 24.5653 46.3821 23.9744C45.9957 23.3835 45.8026 22.6591 45.8026 21.8011C45.8026 21.0625 45.9446 20.4545 46.2287 19.9773C46.5128 19.5 46.8963 19.1222 47.3793 18.8438C47.8622 18.5653 48.402 18.3551 48.9986 18.2131C49.5952 18.071 50.2031 17.9631 50.8224 17.8892C51.6065 17.7983 52.2429 17.7244 52.7315 17.6676C53.2202 17.6051 53.5753 17.5057 53.7969 17.3693C54.0185 17.233 54.1293 17.0114 54.1293 16.7045V16.6449C54.1293 15.9006 53.919 15.3239 53.4986 14.9148C53.0838 14.5057 52.4645 14.3011 51.6406 14.3011C50.7827 14.3011 50.1065 14.4915 49.6122 14.8722C49.1236 15.2472 48.7855 15.6648 48.598 16.125L46.2031 15.5795C46.4872 14.7841 46.902 14.142 47.4474 13.6534C47.9986 13.1591 48.6321 12.8011 49.348 12.5795C50.0639 12.3523 50.8168 12.2386 51.6065 12.2386C52.1293 12.2386 52.6832 12.3011 53.2685 12.4261C53.8594 12.5455 54.4105 12.767 54.9219 13.0909C55.4389 13.4148 55.8622 13.8778 56.1918 14.4801C56.5213 15.0767 56.6861 15.8523 56.6861 16.8068V25.5H54.1974V23.7102H54.0952C53.9304 24.0398 53.6832 24.3636 53.3537 24.6818C53.0241 25 52.6009 25.2642 52.0838 25.4744C51.5668 25.6847 50.9474 25.7898 50.2259 25.7898ZM50.7798 23.7443C51.4844 23.7443 52.0866 23.6051 52.5866 23.3267C53.0923 23.0483 53.4759 22.6847 53.7372 22.2358C54.0043 21.7812 54.1378 21.2955 54.1378 20.7784V19.0909C54.0469 19.1818 53.8707 19.267 53.6094 19.3466C53.3537 19.4205 53.0611 19.4858 52.7315 19.5426C52.402 19.5937 52.081 19.642 51.7685 19.6875C51.456 19.7273 51.1946 19.7614 50.9844 19.7898C50.4901 19.8523 50.0384 19.9574 49.6293 20.1051C49.2259 20.2528 48.902 20.4659 48.6577 20.7443C48.419 21.017 48.2997 21.3807 48.2997 21.8352C48.2997 22.4659 48.5327 22.9432 48.9986 23.267C49.4645 23.5852 50.0582 23.7443 50.7798 23.7443ZM65.5945 25.7642C64.3274 25.7642 63.2365 25.4773 62.3217 24.9034C61.4126 24.3239 60.7138 23.5256 60.2251 22.5085C59.7365 21.4915 59.4922 20.3267 59.4922 19.0142C59.4922 17.6847 59.7422 16.5114 60.2422 15.4943C60.7422 14.4716 61.4467 13.6733 62.3558 13.0994C63.2649 12.5256 64.3359 12.2386 65.5689 12.2386C66.5632 12.2386 67.4496 12.4233 68.228 12.7926C69.0064 13.1562 69.6342 13.6676 70.1115 14.3267C70.5945 14.9858 70.8814 15.7557 70.9723 16.6364H68.4922C68.3558 16.0227 68.0433 15.4943 67.5547 15.0511C67.0717 14.608 66.424 14.3864 65.6115 14.3864C64.9013 14.3864 64.2791 14.5739 63.745 14.9489C63.2166 15.3182 62.8047 15.8466 62.5092 16.5341C62.2138 17.2159 62.0661 18.0227 62.0661 18.9545C62.0661 19.9091 62.2109 20.733 62.5007 21.4261C62.7905 22.1193 63.1996 22.6562 63.728 23.0369C64.2621 23.4176 64.8899 23.608 65.6115 23.608C66.0945 23.608 66.532 23.5199 66.924 23.3438C67.3217 23.1619 67.6541 22.9034 67.9212 22.5682C68.1939 22.233 68.3842 21.8295 68.4922 21.358H70.9723C70.8814 22.2045 70.6058 22.9602 70.1456 23.625C69.6854 24.2898 69.0689 24.8125 68.2962 25.1932C67.5291 25.5739 66.6286 25.7642 65.5945 25.7642ZM76.0412 21.0597L76.0241 17.9489H76.4673L81.6832 12.4091H84.7344L78.7855 18.7159H78.3849L76.0412 21.0597ZM73.6974 25.5V8.04545H76.2457V25.5H73.6974ZM81.9645 25.5L77.277 19.2784L79.0327 17.4972L85.0923 25.5H81.9645Z" fill="#828282"/>
</svg>
