<svg width="335" height="65" viewBox="0 0 335 65" fill="none" xmlns="http://www.w3.org/2000/svg">
<path d="M197.235 46.4203C197.235 43.3795 199.699 40.9124 202.733 40.9124C205.769 40.9124 208.23 43.3795 208.23 46.4203C208.23 49.4611 205.769 51.9266 202.733 51.9266C199.699 51.9266 197.235 49.4611 197.235 46.4203Z" fill="#86BC24"/>
<path d="M21.8733 31.8337C21.8733 28.3451 21.2004 25.7569 19.8544 24.0707C18.5067 22.3862 16.4653 21.5447 13.7208 21.5447H10.8013V42.8782H13.035C16.0834 42.8782 18.3173 41.973 19.7397 40.1562C21.1604 38.3425 21.8733 35.5678 21.8733 31.8337ZM32.285 31.4704C32.285 37.8261 30.5794 42.7236 27.1682 46.1612C23.757 49.6005 18.9617 51.3201 12.7805 51.3201H0.769669V13.2351H13.6189C19.5789 13.2351 24.1801 14.7985 27.4227 17.9238C30.6637 21.0506 32.285 25.5641 32.285 31.4704Z" fill="#0F0B0B"/>
<path d="M65.5548 51.3197H75.1122V13.0753H65.5548V51.3197Z" fill="#0F0B0B"/>
<path d="M88.5384 37.0544C88.5384 39.4928 88.8566 41.3526 89.4914 42.6308C90.1279 43.9105 91.1937 44.5496 92.6925 44.5496C94.1753 44.5496 95.2238 43.9105 95.8348 42.6308C96.4457 41.3526 96.7496 39.4928 96.7496 37.0544C96.7496 34.6287 96.4409 32.7991 95.822 31.564C95.2015 30.3257 94.1437 29.7057 92.6434 29.7057C91.1764 29.7057 90.1279 30.3225 89.4914 31.5497C88.8566 32.7784 88.5384 34.6128 88.5384 37.0544ZM106.477 37.0544C106.477 41.7001 105.262 45.3242 102.824 47.922C100.388 50.5213 96.9788 51.8217 92.5955 51.8217C88.392 51.8217 85.0459 50.4926 82.5623 47.8342C80.0756 45.1759 78.833 41.5837 78.833 37.0544C78.833 32.423 80.0503 28.8244 82.4878 26.2585C84.9251 23.6926 88.3426 22.4097 92.7434 22.4097C95.4626 22.4097 97.8683 23.0042 99.9525 24.1915C102.038 25.3788 103.649 27.0793 104.78 29.2946C105.913 31.5067 106.477 34.0948 106.477 37.0544Z" fill="#0F0B0B"/>
<path d="M110.273 51.3198H119.832V36.6831V22.9117H110.273V51.3198Z" fill="#0F0B0B"/>
<path d="M110.273 19.4755H119.832V13.0735H110.273V19.4755Z" fill="#0F0B0B"/>
<path d="M139.198 44.074C140.488 44.074 142.025 43.7457 143.818 43.0939V50.2417C142.529 50.809 141.304 51.2154 140.139 51.4561C138.975 51.6999 137.608 51.8211 136.044 51.8211C132.835 51.8211 130.521 51.0131 129.101 49.4002C127.686 47.7874 126.977 45.3107 126.977 41.9687V30.2581H123.629V22.9142H126.977V15.6596L136.609 13.9813V22.9142H142.707V30.2581H136.609V41.3153C136.609 43.1544 137.473 44.074 139.198 44.074Z" fill="#0F0B0B"/>
<path d="M161.321 44.074C162.611 44.074 164.148 43.7457 165.941 43.0939V50.2417C164.654 50.809 163.427 51.2154 162.263 51.4561C161.096 51.6999 159.734 51.8211 158.167 51.8211C154.958 51.8211 152.645 51.0131 151.227 49.4002C149.81 47.7874 149.1 45.3107 149.1 41.9687V30.2581H145.751V22.9142H149.1V15.5496L158.731 13.9813V22.9142H164.832V30.2581H158.731V41.3153C158.731 43.1544 159.594 44.074 161.321 44.074Z" fill="#0F0B0B"/>
<path d="M178.002 33.5935C178.132 32.038 178.577 30.8985 179.334 30.1702C180.095 29.4434 181.033 29.0801 182.156 29.0801C183.382 29.0801 184.355 29.488 185.077 30.3104C185.805 31.128 186.183 32.2229 186.214 33.5935H178.002ZM191.481 25.7588C189.209 23.5276 185.986 22.4104 181.816 22.4104C177.432 22.4104 174.06 23.6933 171.695 26.2592C169.333 28.8251 168.15 32.5066 168.15 37.3037C168.15 41.9494 169.428 45.532 171.977 48.0469C174.527 50.5618 178.109 51.8209 182.721 51.8209C184.936 51.8209 186.842 51.6695 188.439 51.3683C190.027 51.0703 191.564 50.5315 193.055 49.7538L191.586 43.3518C190.503 43.7949 189.472 44.1359 188.498 44.3607C187.092 44.6874 185.549 44.8515 183.868 44.8515C182.026 44.8515 180.572 44.4005 179.506 43.4984C178.44 42.5948 177.872 41.3486 177.807 39.7612H194.891V35.3992C194.891 31.2029 193.755 27.9884 191.481 25.7588Z" fill="#0F0B0B"/>
<path d="M44.9698 33.5935C45.1003 32.038 45.5442 30.8985 46.3014 30.1702C47.0604 29.4434 48.0009 29.0801 49.1258 29.0801C50.3477 29.0801 51.3213 29.488 52.0453 30.3104C52.7724 31.128 53.1495 32.2229 53.183 33.5935H44.9698ZM58.4508 25.7588C56.1773 23.5276 52.9553 22.4104 48.7837 22.4104C44.3987 22.4104 41.0272 23.6933 38.6644 26.2592C36.3018 28.8251 35.1181 32.5066 35.1181 37.3037C35.1181 41.9494 36.3942 45.532 38.9463 48.0469C41.4951 50.5618 45.0764 51.8209 49.6889 51.8209C51.9036 51.8209 53.8096 51.6695 55.407 51.3683C56.9949 51.0703 58.532 50.5315 60.0244 49.7538L58.5543 43.3518C57.4707 43.7949 56.4397 44.1359 55.4676 44.3607C54.0579 44.6874 52.5161 44.8515 50.8359 44.8515C48.9951 44.8515 47.5396 44.4005 46.4736 43.4984C45.4059 42.5948 44.8396 41.3486 44.7744 39.7612H61.8588V35.3992C61.8588 31.2029 60.7228 27.9884 58.4508 25.7588Z" fill="#0F0B0B"/>
<path d="M225.594 51V16.7344H230.398V51H225.594ZM251.914 24.7031C254.898 24.7031 257.188 25.4531 258.781 26.9531C260.391 28.4531 261.195 30.8594 261.195 34.1719V51H256.531V34.8047C256.531 32.7422 256.078 31.1953 255.172 30.1641C254.266 29.1172 252.875 28.5938 251 28.5938C248.328 28.5938 246.453 29.3828 245.375 30.9609C244.312 32.5391 243.781 34.8281 243.781 37.8281V51H239.07V25.1719H242.797L243.477 28.8047H243.734C244.281 27.8984 244.977 27.1406 245.82 26.5312C246.664 25.9219 247.602 25.4688 248.633 25.1719C249.68 24.8594 250.773 24.7031 251.914 24.7031ZM278 51.4688C274.844 51.4688 272.32 50.3516 270.43 48.1172C268.555 45.8828 267.617 42.5703 267.617 38.1797C267.617 33.7422 268.57 30.3906 270.477 28.125C272.398 25.8438 274.945 24.7031 278.117 24.7031C279.445 24.7031 280.609 24.8828 281.609 25.2422C282.609 25.6016 283.469 26.0781 284.188 26.6719C284.922 27.2656 285.531 27.9375 286.016 28.6875H286.297C286.219 28.2031 286.141 27.5234 286.062 26.6484C285.984 25.7734 285.945 25.0078 285.945 24.3516V14.5312H290.656V51H286.93L286.156 47.4141H285.945C285.477 48.1641 284.875 48.8516 284.141 49.4766C283.422 50.0859 282.555 50.5703 281.539 50.9297C280.539 51.2891 279.359 51.4688 278 51.4688ZM279.102 47.625C281.648 47.625 283.445 46.8906 284.492 45.4219C285.555 43.9531 286.094 41.7734 286.109 38.8828V38.1562C286.109 35.0781 285.602 32.7188 284.586 31.0781C283.586 29.4219 281.742 28.5938 279.055 28.5938C276.867 28.5938 275.219 29.4531 274.109 31.1719C273 32.875 272.445 35.2422 272.445 38.2734C272.445 41.2734 273 43.5859 274.109 45.2109C275.219 46.8203 276.883 47.625 279.102 47.625ZM303.406 25.1719V51H298.695V25.1719H303.406ZM301.086 15.3984C301.836 15.3984 302.477 15.6172 303.008 16.0547C303.555 16.4922 303.828 17.2031 303.828 18.1875C303.828 19.1719 303.555 19.8906 303.008 20.3438C302.477 20.7812 301.836 21 301.086 21C300.32 21 299.672 20.7812 299.141 20.3438C298.625 19.8906 298.367 19.1719 298.367 18.1875C298.367 17.2031 298.625 16.4922 299.141 16.0547C299.672 15.6172 300.32 15.3984 301.086 15.3984ZM321.336 24.7266C324.523 24.7266 326.906 25.4375 328.484 26.8594C330.062 28.2656 330.852 30.4922 330.852 33.5391V51H327.477L326.562 47.25H326.375C325.656 48.1875 324.906 48.9688 324.125 49.5938C323.344 50.2188 322.438 50.6875 321.406 51C320.391 51.3125 319.148 51.4688 317.68 51.4688C316.117 51.4688 314.727 51.1875 313.508 50.625C312.289 50.0625 311.328 49.2188 310.625 48.0938C309.938 46.9531 309.594 45.5078 309.594 43.7578C309.594 41.1328 310.602 39.1406 312.617 37.7812C314.633 36.4219 317.688 35.6797 321.781 35.5547L326.234 35.3672V33.9141C326.234 31.8984 325.781 30.4766 324.875 29.6484C323.984 28.8203 322.734 28.4062 321.125 28.4062C319.797 28.4062 318.523 28.6016 317.305 28.9922C316.086 29.3672 314.914 29.8203 313.789 30.3516L312.289 26.9297C313.508 26.3047 314.891 25.7812 316.438 25.3594C318 24.9375 319.633 24.7266 321.336 24.7266ZM326.188 38.4609L322.578 38.625C319.594 38.7344 317.492 39.2344 316.273 40.125C315.07 41 314.469 42.2266 314.469 43.8047C314.469 45.1797 314.883 46.1875 315.711 46.8281C316.539 47.4688 317.633 47.7891 318.992 47.7891C321.086 47.7891 322.805 47.2031 324.148 46.0312C325.508 44.8438 326.188 43.0938 326.188 40.7812V38.4609Z" fill="#0F0B0B"/>
</svg>
