<svg width="40" height="40" viewBox="0 0 40 40" fill="none" xmlns="http://www.w3.org/2000/svg">
<path opacity="0.2" d="M13.75 27.5C13.75 28.2417 13.5301 28.9667 13.118 29.5834C12.706 30.2001 12.1203 30.6807 11.4351 30.9646C10.7498 31.2484 9.99584 31.3226 9.26841 31.1779C8.54098 31.0333 7.8728 30.6761 7.34835 30.1517C6.8239 29.6272 6.46675 28.959 6.32206 28.2316C6.17736 27.5042 6.25162 26.7502 6.53545 26.0649C6.81928 25.3797 7.29993 24.794 7.91661 24.382C8.5333 23.9699 9.25832 23.75 10 23.75C10.9946 23.75 11.9484 24.1451 12.6517 24.8484C13.3549 25.5516 13.75 26.5054 13.75 27.5ZM30 23.75C29.2583 23.75 28.5333 23.9699 27.9166 24.382C27.2999 24.794 26.8193 25.3797 26.5355 26.0649C26.2516 26.7502 26.1774 27.5042 26.3221 28.2316C26.4667 28.959 26.8239 29.6272 27.3483 30.1517C27.8728 30.6761 28.541 31.0333 29.2684 31.1779C29.9958 31.3226 30.7498 31.2484 31.4351 30.9646C32.1203 30.6807 32.706 30.2001 33.118 29.5834C33.5301 28.9667 33.75 28.2417 33.75 27.5C33.75 26.5054 33.3549 25.5516 32.6517 24.8484C31.9484 24.1451 30.9946 23.75 30 23.75ZM25.3656 11.6156C25.1314 11.3816 24.8139 11.2502 24.4828 11.25L6.91875 11.25C6.7129 11.2499 6.51021 11.3006 6.32867 11.3976C6.14713 11.4946 5.99237 11.635 5.87812 11.8062L1.25 18.75L32.5 18.75L25.3656 11.6156Z" fill="#4CBEF6"/>
<path d="M37.5 17.5H33.0172L26.25 10.7328C26.0187 10.4997 25.7434 10.3148 25.44 10.189C25.1366 10.0632 24.8112 9.99896 24.4828 10L6.91875 10C6.50812 10.0008 6.10399 10.1027 5.74209 10.2967C5.38019 10.4907 5.07165 10.7709 4.84375 11.1125L0.209375 18.0563C0.0732061 18.262 0.00040759 18.5033 0 18.75L0 26.25C0 26.9131 0.263392 27.5489 0.732233 28.0178C1.20107 28.4866 1.83696 28.75 2.5 28.75H5.15625C5.43163 29.8255 6.05713 30.7788 6.93414 31.4596C7.81115 32.1403 8.88979 32.5098 10 32.5098C11.1102 32.5098 12.1889 32.1403 13.0659 31.4596C13.9429 30.7788 14.5684 29.8255 14.8438 28.75L25.1563 28.75C25.4316 29.8255 26.0571 30.7788 26.9341 31.4596C27.8111 32.1403 28.8898 32.5098 30 32.5098C31.1102 32.5098 32.1889 32.1403 33.0659 31.4596C33.9429 30.7788 34.5684 29.8255 34.8438 28.75H37.5C38.163 28.75 38.7989 28.4866 39.2678 28.0178C39.7366 27.5489 40 26.9131 40 26.25V20C40 19.337 39.7366 18.7011 39.2678 18.2322C38.7989 17.7634 38.163 17.5 37.5 17.5ZM6.91875 12.5L24.4828 12.5L29.4828 17.5L3.59375 17.5L6.91875 12.5ZM10 30C9.50555 30 9.0222 29.8534 8.61107 29.5787C8.19995 29.304 7.87952 28.9135 7.6903 28.4567C7.50108 27.9999 7.45157 27.4972 7.54804 27.0123C7.6445 26.5273 7.8826 26.0819 8.23223 25.7322C8.58186 25.3826 9.02732 25.1445 9.51227 25.0481C9.99723 24.9516 10.4999 25.0011 10.9567 25.1903C11.4135 25.3795 11.804 25.7 12.0787 26.1111C12.3534 26.5222 12.5 27.0056 12.5 27.5C12.5 28.1631 12.2366 28.7989 11.7678 29.2678C11.2989 29.7366 10.663 30 10 30ZM30 30C29.5055 30 29.0222 29.8534 28.6111 29.5787C28.2 29.304 27.8795 28.9135 27.6903 28.4567C27.5011 27.9999 27.4516 27.4972 27.548 27.0123C27.6445 26.5273 27.8826 26.0819 28.2322 25.7322C28.5819 25.3826 29.0273 25.1445 29.5123 25.0481C29.9972 24.9516 30.4999 25.0011 30.9567 25.1903C31.4135 25.3795 31.804 25.7 32.0787 26.1111C32.3534 26.5222 32.5 27.0056 32.5 27.5C32.5 28.1631 32.2366 28.7989 31.7678 29.2678C31.2989 29.7366 30.663 30 30 30ZM37.5 26.25H34.8438C34.5684 25.1745 33.9429 24.2212 33.0659 23.5405C32.1889 22.8597 31.1102 22.4902 30 22.4902C28.8898 22.4902 27.8111 22.8597 26.9341 23.5405C26.0571 24.2212 25.4316 25.1745 25.1563 26.25L14.8438 26.25C14.5684 25.1745 13.9429 24.2212 13.0659 23.5405C12.1889 22.8597 11.1102 22.4902 10 22.4902C8.88979 22.4902 7.81115 22.8597 6.93414 23.5405C6.05713 24.2212 5.43163 25.1745 5.15625 26.25H2.5L2.5 20L37.5 20V26.25Z" fill="black"/>
</svg>
