<svg width="24" height="24" viewBox="0 0 24 24" fill="none" xmlns="http://www.w3.org/2000/svg">
<path opacity="0.2" d="M10.5 5.25V18.75L3.75 12L10.5 5.25Z" fill="black"/>
<path d="M20.2501 11.2501H11.2501V5.2501C11.2502 5.10168 11.2063 4.95656 11.1239 4.83312C11.0415 4.70967 10.9243 4.61345 10.7872 4.55664C10.6501 4.49982 10.4992 4.48497 10.3536 4.51396C10.2081 4.54294 10.0744 4.61447 9.96948 4.71948L3.21948 11.4695C3.14974 11.5391 3.09443 11.6218 3.05668 11.7129C3.01894 11.8039 2.99951 11.9015 2.99951 12.0001C2.99951 12.0987 3.01894 12.1963 3.05668 12.2873C3.09443 12.3784 3.14974 12.4611 3.21948 12.5307L9.96948 19.2807C10.0744 19.3857 10.2081 19.4573 10.3536 19.4862C10.4992 19.5152 10.6501 19.5004 10.7872 19.4436C10.9243 19.3868 11.0415 19.2905 11.1239 19.1671C11.2063 19.0436 11.2502 18.8985 11.2501 18.7501V12.7501H20.2501C20.449 12.7501 20.6398 12.6711 20.7804 12.5304C20.9211 12.3898 21.0001 12.199 21.0001 12.0001C21.0001 11.8012 20.9211 11.6104 20.7804 11.4698C20.6398 11.3291 20.449 11.2501 20.2501 11.2501ZM9.7501 16.9398L4.81041 12.0001L9.7501 7.06041V16.9398Z" fill="black"/>
</svg>
