<svg width="40" height="40" viewBox="0 0 40 40" fill="none" xmlns="http://www.w3.org/2000/svg">
<path opacity="0.2" d="M33.75 8.75V17.5C33.75 32.5 20 36.25 20 36.25C20 36.25 6.25 32.5 6.25 17.5L6.25 8.75C6.25 8.41848 6.3817 8.10054 6.61612 7.86612C6.85054 7.6317 7.16848 7.5 7.5 7.5L32.5 7.5C32.8315 7.5 33.1495 7.6317 33.3839 7.86612C33.6183 8.10054 33.75 8.41848 33.75 8.75Z" fill="#4CBEF6"/>
<path d="M13.75 20C13.75 19.6685 13.8817 19.3505 14.1161 19.1161C14.3505 18.8817 14.6685 18.75 15 18.75H18.75V15C18.75 14.6685 18.8817 14.3505 19.1161 14.1161C19.3505 13.8817 19.6685 13.75 20 13.75C20.3315 13.75 20.6495 13.8817 20.8839 14.1161C21.1183 14.3505 21.25 14.6685 21.25 15V18.75H25C25.3315 18.75 25.6495 18.8817 25.8839 19.1161C26.1183 19.3505 26.25 19.6685 26.25 20C26.25 20.3315 26.1183 20.6495 25.8839 20.8839C25.6495 21.1183 25.3315 21.25 25 21.25H21.25L21.25 25C21.25 25.3315 21.1183 25.6495 20.8839 25.8839C20.6495 26.1183 20.3315 26.25 20 26.25C19.6685 26.25 19.3505 26.1183 19.1161 25.8839C18.8817 25.6495 18.75 25.3315 18.75 25V21.25H15C14.6685 21.25 14.3505 21.1183 14.1161 20.8839C13.8817 20.6495 13.75 20.3315 13.75 20ZM35 8.75V17.5C35 25.7375 31.0125 30.7297 27.6672 33.4672C24.0641 36.4141 20.4797 37.4156 20.3234 37.4562C20.1086 37.5147 19.882 37.5147 19.6672 37.4562C19.5109 37.4156 15.9313 36.4141 12.3234 33.4672C8.9875 30.7297 5 25.7375 5 17.5L5 8.75C5 8.08696 5.26339 7.45107 5.73223 6.98223C6.20107 6.51339 6.83696 6.25 7.5 6.25L32.5 6.25C33.163 6.25 33.7989 6.51339 34.2678 6.98223C34.7366 7.45107 35 8.08696 35 8.75ZM32.5 8.75L7.5 8.75L7.5 17.5C7.5 23.3281 9.65938 28.0484 13.9172 31.5328C15.7301 33.0155 17.7888 34.1689 20 34.9406C22.2405 34.1552 24.325 32.981 26.1578 31.4719C30.3656 27.9937 32.5 23.2922 32.5 17.5V8.75Z" fill="black"/>
</svg>
