<svg width="42" height="39" viewBox="0 0 42 39" fill="none" xmlns="http://www.w3.org/2000/svg">
<path d="M18.75 30C18.75 30.3978 18.592 30.7794 18.3107 31.0607C18.0294 31.342 17.6478 31.5 17.25 31.5H12C11.6022 31.5 11.2206 31.342 10.9393 31.0607C10.658 30.7794 10.5 30.3978 10.5 30C10.5 29.6022 10.658 29.2206 10.9393 28.9393C11.2206 28.658 11.6022 28.5 12 28.5H17.25C17.6478 28.5 18.0294 28.658 18.3107 28.9393C18.592 29.2206 18.75 29.6022 18.75 30ZM30 28.5H24.75C24.3522 28.5 23.9706 28.658 23.6893 28.9393C23.408 29.2206 23.25 29.6022 23.25 30C23.25 30.3978 23.408 30.7794 23.6893 31.0607C23.9706 31.342 24.3522 31.5 24.75 31.5H30C30.3978 31.5 30.7794 31.342 31.0607 31.0607C31.342 30.7794 31.5 30.3978 31.5 30C31.5 29.6022 31.342 29.2206 31.0607 28.9393C30.7794 28.658 30.3978 28.5 30 28.5ZM42 37.5C42 37.8978 41.842 38.2794 41.5607 38.5607C41.2794 38.842 40.8978 39 40.5 39H1.5C1.10218 39 0.720644 38.842 0.43934 38.5607C0.158035 38.2794 0 37.8978 0 37.5C0 37.1022 0.158035 36.7206 0.43934 36.4393C0.720644 36.158 1.10218 36 1.5 36H3V13.5C3 13.2214 3.07757 12.9484 3.22402 12.7114C3.37048 12.4744 3.58002 12.2829 3.82918 12.1584C4.07834 12.0338 4.35727 11.981 4.63471 12.0061C4.91215 12.0311 5.17715 12.1329 5.4 12.3L15 19.5V13.5C15 13.2214 15.0776 12.9484 15.224 12.7114C15.3705 12.4744 15.58 12.2829 15.8292 12.1584C16.0783 12.0338 16.3573 11.981 16.6347 12.0061C16.9122 12.0311 17.1771 12.1329 17.4 12.3L24.6637 17.7469L26.8313 2.57625C26.9362 1.86254 27.2936 1.21012 27.8386 0.737424C28.3835 0.264728 29.0799 0.00308876 29.8013 0H33.1987C33.9201 0.00308876 34.6165 0.264728 35.1614 0.737424C35.7064 1.21012 36.0638 1.86254 36.1687 2.57625L38.9812 22.2881C38.9812 22.2881 38.9963 22.4344 38.9963 22.5V36H40.4963C40.6935 35.9995 40.889 36.0379 41.0714 36.1131C41.2538 36.1883 41.4196 36.2987 41.5593 36.438C41.699 36.5773 41.8098 36.7429 41.8855 36.9251C41.9611 37.1073 42 37.3027 42 37.5ZM27.4012 19.8L29.0006 21H35.7712L33.1987 3H29.8013L27.4012 19.8ZM6 36H36V24H28.5C28.1754 24 27.8596 23.8947 27.6 23.7L24.9 21.675L18 16.5V22.5C18 22.7786 17.9224 23.0516 17.776 23.2886C17.6295 23.5256 17.42 23.7171 17.1708 23.8416C16.9217 23.9662 16.6427 24.019 16.3653 23.9939C16.0878 23.9689 15.8229 23.8671 15.6 23.7L6 16.5V36Z" fill="#137337"/>
</svg>
