<svg width="125" height="124" viewBox="0 0 125 124" fill="none" xmlns="http://www.w3.org/2000/svg">
<path opacity="0.2" d="M108.833 27.125V85.25C108.833 86.2777 108.425 87.2633 107.699 87.99C106.972 88.7167 105.986 89.125 104.958 89.125L19.7085 89.125C18.6808 89.125 17.6952 88.7167 16.9685 87.99C16.2418 87.2633 15.8335 86.2777 15.8335 85.25L15.8335 27.125C15.8335 26.0973 16.2418 25.1117 16.9685 24.385C17.6952 23.6583 18.6808 23.25 19.7085 23.25L104.958 23.25C105.986 23.25 106.972 23.6583 107.699 24.385C108.425 25.1117 108.833 26.0973 108.833 27.125Z" fill="white"/>
<path d="M104.958 19.375L66.2085 19.375V11.625C66.2085 10.5973 65.8002 9.61166 65.0735 8.88496C64.3468 8.15826 63.3612 7.75 62.3335 7.75C61.3058 7.75 60.3202 8.15826 59.5935 8.88496C58.8668 9.61166 58.4585 10.5973 58.4585 11.625V19.375L19.7085 19.375C17.6531 19.375 15.6818 20.1915 14.2284 21.6449C12.775 23.0983 11.9585 25.0696 11.9585 27.125L11.9585 85.25C11.9585 87.3054 12.775 89.2767 14.2284 90.7301C15.6818 92.1835 17.6531 93 19.7085 93H38.7735L28.3062 106.078C27.6638 106.881 27.3668 107.906 27.4803 108.928C27.5939 109.95 28.1087 110.885 28.9116 111.527C29.7145 112.17 30.7397 112.467 31.7616 112.353C32.7836 112.24 33.7185 111.725 34.3608 110.922L48.6935 93L75.9735 93L90.3062 110.922C90.6242 111.319 91.0174 111.65 91.4634 111.896C91.9094 112.142 92.3994 112.297 92.9054 112.353C93.4114 112.409 93.9235 112.365 94.4125 112.224C94.9015 112.082 95.3578 111.845 95.7554 111.527C96.1529 111.209 96.4839 110.816 96.7295 110.37C96.9751 109.924 97.1305 109.434 97.1867 108.928C97.2429 108.422 97.1989 107.91 97.0572 107.421C96.9155 106.932 96.6789 106.476 96.3608 106.078L85.8935 93H104.958C107.014 93 108.985 92.1835 110.439 90.7301C111.892 89.2767 112.708 87.3054 112.708 85.25L112.708 27.125C112.708 25.0696 111.892 23.0983 110.439 21.6449C108.985 20.1915 107.014 19.375 104.958 19.375ZM104.958 85.25L19.7085 85.25L19.7085 27.125L104.958 27.125L104.958 85.25ZM50.7085 58.125V69.75C50.7085 70.7777 50.3002 71.7633 49.5735 72.49C48.8468 73.2168 47.8612 73.625 46.8335 73.625C45.8058 73.625 44.8202 73.2168 44.0935 72.49C43.3668 71.7633 42.9585 70.7777 42.9585 69.75V58.125C42.9585 57.0973 43.3668 56.1117 44.0935 55.385C44.8202 54.6583 45.8058 54.25 46.8335 54.25C47.8612 54.25 48.8468 54.6583 49.5735 55.385C50.3002 56.1117 50.7085 57.0973 50.7085 58.125ZM66.2085 50.375V69.75C66.2085 70.7777 65.8002 71.7633 65.0735 72.49C64.3468 73.2168 63.3612 73.625 62.3335 73.625C61.3058 73.625 60.3202 73.2168 59.5935 72.49C58.8668 71.7633 58.4585 70.7777 58.4585 69.75V50.375C58.4585 49.3473 58.8668 48.3617 59.5935 47.635C60.3202 46.9083 61.3058 46.5 62.3335 46.5C63.3612 46.5 64.3468 46.9083 65.0735 47.635C65.8002 48.3617 66.2085 49.3473 66.2085 50.375ZM81.7085 42.625V69.75C81.7085 70.7777 81.3002 71.7633 80.5735 72.49C79.8468 73.2168 78.8612 73.625 77.8335 73.625C76.8058 73.625 75.8202 73.2168 75.0935 72.49C74.3668 71.7633 73.9585 70.7777 73.9585 69.75V42.625C73.9585 41.5973 74.3668 40.6117 75.0935 39.885C75.8202 39.1583 76.8058 38.75 77.8335 38.75C78.8612 38.75 79.8468 39.1583 80.5735 39.885C81.3002 40.6117 81.7085 41.5973 81.7085 42.625Z" fill="#5A8A03"/>
</svg>
