<svg width="40" height="40" viewBox="0 0 40 40" fill="none" xmlns="http://www.w3.org/2000/svg">
<path opacity="0.2" d="M21.25 16.875C21.25 18.482 20.7735 20.0529 19.8807 21.389C18.9879 22.7252 17.719 23.7666 16.2343 24.3815C14.7497 24.9965 13.116 25.1574 11.5399 24.8439C9.9638 24.5304 8.51606 23.7565 7.37976 22.6202C6.24346 21.4839 5.46963 20.0362 5.15612 18.4601C4.84262 16.884 5.00352 15.2503 5.61848 13.7657C6.23344 12.281 7.27485 11.0121 8.611 10.1193C9.94714 9.22652 11.518 8.75 13.125 8.75C15.2799 8.75 17.3465 9.60602 18.8702 11.1298C20.394 12.6535 21.25 14.7201 21.25 16.875Z" fill="#4CBEF6"/>
<path d="M18.3203 24.6749C19.9956 23.5596 21.2675 21.9347 21.9479 20.0406C22.6284 18.1465 22.6812 16.0837 22.0986 14.1572C21.516 12.2308 20.3289 10.543 18.7128 9.34338C17.0968 8.14378 15.1376 7.49609 13.125 7.49609C11.1123 7.49609 9.15314 8.14378 7.5371 9.34338C5.92105 10.543 4.73395 12.2308 4.15135 14.1572C3.56874 16.0837 3.62156 18.1465 4.30198 20.0406C4.98241 21.9347 6.25433 23.5596 7.92964 24.6749C4.89916 25.7918 2.31106 27.8587 0.551518 30.5671C0.459043 30.7045 0.394809 30.859 0.362551 31.0215C0.330293 31.184 0.330654 31.3512 0.363614 31.5136C0.396573 31.6759 0.461473 31.8301 0.554541 31.9671C0.647609 32.1042 0.766989 32.2214 0.905741 32.3119C1.04449 32.4024 1.19985 32.4644 1.36278 32.4943C1.52571 32.5242 1.69297 32.5215 1.85482 32.4862C2.01668 32.4509 2.16991 32.3838 2.30561 32.2888C2.44131 32.1938 2.55676 32.0727 2.64527 31.9327C3.78025 30.1871 5.33333 28.7526 7.16345 27.7595C8.99358 26.7665 11.0428 26.2464 13.125 26.2464C15.2071 26.2464 17.2563 26.7665 19.0865 27.7595C20.9166 28.7526 22.4697 30.1871 23.6046 31.9327C23.788 32.2052 24.0712 32.3946 24.393 32.4599C24.7149 32.5253 25.0496 32.4613 25.3246 32.2819C25.5997 32.1025 25.7931 31.822 25.8631 31.5011C25.933 31.1802 25.8739 30.8447 25.6984 30.5671C23.9389 27.8587 21.3507 25.7918 18.3203 24.6749ZM6.24996 16.8749C6.24996 15.5152 6.65317 14.1859 7.4086 13.0554C8.16404 11.9248 9.23776 11.0436 10.494 10.5232C11.7502 10.0029 13.1326 9.86673 14.4662 10.132C15.7998 10.3973 17.0248 11.0521 17.9863 12.0135C18.9478 12.975 19.6026 14.2 19.8679 15.5337C20.1331 16.8673 19.997 18.2496 19.4766 19.5058C18.9563 20.7621 18.0751 21.8358 16.9445 22.5912C15.8139 23.3467 14.4847 23.7499 13.125 23.7499C11.3022 23.7478 9.55474 23.0228 8.26588 21.734C6.97702 20.4451 6.25202 18.6976 6.24996 16.8749ZM39.0843 32.2968C38.8067 32.4778 38.4685 32.5412 38.1441 32.4729C37.8197 32.4046 37.5358 32.2103 37.3546 31.9327C36.221 30.186 34.6681 28.7509 32.8376 27.7583C31.0071 26.7657 28.9573 26.2471 26.875 26.2499C26.5434 26.2499 26.2255 26.1182 25.9911 25.8838C25.7567 25.6494 25.625 25.3314 25.625 24.9999C25.625 24.6684 25.7567 24.3504 25.9911 24.116C26.2255 23.8816 26.5434 23.7499 26.875 23.7499C27.8874 23.7489 28.8872 23.5244 29.8028 23.0923C30.7184 22.6601 31.5272 22.0311 32.1716 21.2502C32.8159 20.4692 33.2798 19.5556 33.5301 18.5745C33.7804 17.5935 33.8109 16.5693 33.6195 15.5751C33.4281 14.5809 33.0194 13.6413 32.4228 12.8233C31.8261 12.0054 31.0562 11.3293 30.1679 10.8434C29.2797 10.3575 28.2951 10.0738 27.2845 10.0125C26.2739 9.95123 25.2623 10.1139 24.3218 10.489C24.1685 10.5552 24.0034 10.5901 23.8364 10.5915C23.6693 10.5929 23.5037 10.5609 23.3493 10.4972C23.1949 10.4335 23.0548 10.3395 22.9373 10.2208C22.8198 10.102 22.7273 9.96092 22.6652 9.80582C22.6032 9.65072 22.5729 9.48476 22.5761 9.31774C22.5792 9.15072 22.6159 8.98604 22.6838 8.83342C22.7517 8.6808 22.8495 8.54333 22.9714 8.42915C23.0934 8.31498 23.237 8.2264 23.3937 8.16865C25.546 7.31029 27.9399 7.2794 30.1136 8.08194C32.2873 8.88448 34.0868 10.4636 35.165 12.5146C36.2431 14.5656 36.5235 16.9433 35.952 19.1888C35.3805 21.4344 33.9977 23.3887 32.0703 24.6749C35.1007 25.7918 37.6889 27.8587 39.4484 30.5671C39.6295 30.8447 39.6928 31.1829 39.6245 31.5073C39.5563 31.8317 39.362 32.1157 39.0843 32.2968Z" fill="black"/>
</svg>
