<svg width="48" height="48" viewBox="0 0 48 48" fill="none" xmlns="http://www.w3.org/2000/svg">
<path opacity="0.2" d="M42 10.5V33C42 33.3978 41.842 33.7794 41.5607 34.0607C41.2794 34.342 40.8978 34.5 40.5 34.5H7.5C7.10218 34.5 6.72064 34.342 6.43934 34.0607C6.15804 33.7794 6 33.3978 6 33V10.5C6 10.1022 6.15804 9.72064 6.43934 9.43934C6.72064 9.15804 7.10218 9 7.5 9H40.5C40.8978 9 41.2794 9.15804 41.5607 9.43934C41.842 9.72064 42 10.1022 42 10.5Z" fill="#137337"/>
<path d="M40.5 7.5H25.5V4.5C25.5 4.10218 25.342 3.72064 25.0607 3.43934C24.7794 3.15804 24.3978 3 24 3C23.6022 3 23.2206 3.15804 22.9393 3.43934C22.658 3.72064 22.5 4.10218 22.5 4.5V7.5H7.5C6.70435 7.5 5.94129 7.81607 5.37868 8.37868C4.81607 8.94129 4.5 9.70435 4.5 10.5V33C4.5 33.7957 4.81607 34.5587 5.37868 35.1213C5.94129 35.6839 6.70435 36 7.5 36H14.88L10.8281 41.0625C10.5795 41.3733 10.4645 41.7701 10.5084 42.1657C10.5524 42.5613 10.7517 42.9232 11.0625 43.1719C11.3733 43.4205 11.7701 43.5355 12.1657 43.4916C12.5613 43.4476 12.9232 43.2483 13.1719 42.9375L18.72 36H29.28L34.8281 42.9375C34.9512 43.0914 35.1035 43.2195 35.2761 43.3146C35.4487 43.4097 35.6384 43.4698 35.8343 43.4916C36.0301 43.5133 36.2284 43.4963 36.4177 43.4414C36.607 43.3866 36.7836 43.295 36.9375 43.1719C37.0914 43.0488 37.2195 42.8965 37.3146 42.7239C37.4097 42.5513 37.4698 42.3616 37.4916 42.1657C37.5133 41.9699 37.4963 41.7716 37.4414 41.5823C37.3866 41.393 37.295 41.2164 37.1719 41.0625L33.12 36H40.5C41.2957 36 42.0587 35.6839 42.6213 35.1213C43.1839 34.5587 43.5 33.7957 43.5 33V10.5C43.5 9.70435 43.1839 8.94129 42.6213 8.37868C42.0587 7.81607 41.2957 7.5 40.5 7.5ZM40.5 33H7.5V10.5H40.5V33Z" fill="#137337"/>
</svg>
