<svg width="32" height="33" viewBox="0 0 32 33" fill="none" xmlns="http://www.w3.org/2000/svg">
<path opacity="0.2" d="M28 7.5L16 18.5L4 7.5H28Z" fill="white"/>
<path d="M28 6.5H4C3.73478 6.5 3.48043 6.60536 3.29289 6.79289C3.10536 6.98043 3 7.23478 3 7.5V24.5C3 25.0304 3.21071 25.5391 3.58579 25.9142C3.96086 26.2893 4.46957 26.5 5 26.5H27C27.5304 26.5 28.0391 26.2893 28.4142 25.9142C28.7893 25.5391 29 25.0304 29 24.5V7.5C29 7.23478 28.8946 6.98043 28.7071 6.79289C28.5196 6.60536 28.2652 6.5 28 6.5ZM25.4287 8.5L16 17.1437L6.57125 8.5H25.4287ZM27 24.5H5V9.77375L15.3237 19.2375C15.5082 19.4069 15.7496 19.5008 16 19.5008C16.2504 19.5008 16.4918 19.4069 16.6763 19.2375L27 9.77375V24.5Z" fill="white"/>
</svg>
