<svg width="41" height="40" viewBox="0 0 41 40" fill="none" xmlns="http://www.w3.org/2000/svg">
<g clip-path="url(#clip0_160_1179)">
<path opacity="0.2" d="M37.8333 17.5V22.5C37.8333 23.163 37.5699 23.7989 37.101 24.2678C36.6322 24.7366 35.9963 25 35.3333 25H34.0833L31.2551 32.9203C31.1684 33.1633 31.0086 33.3735 30.7977 33.522C30.5867 33.6705 30.335 33.7502 30.077 33.75H28.0895C27.8315 33.7502 27.5798 33.6705 27.3689 33.522C27.1579 33.3735 26.9981 33.1633 26.9114 32.9203L26.3161 31.25H15.6004L15.0051 32.9203C14.9184 33.1633 14.7586 33.3735 14.5477 33.522C14.3367 33.6705 14.085 33.7502 13.827 33.75H11.8395C11.5815 33.7502 11.3298 33.6705 11.1189 33.522C10.9079 33.3735 10.7481 33.1633 10.6614 32.9203L8.61451 27.1875C6.50099 24.8862 5.32977 21.8745 5.33326 18.75C5.33326 15.4348 6.65022 12.2554 8.99442 9.91117C11.3386 7.56696 14.5181 6.25 17.8333 6.25H22.8333C25.2725 6.24929 27.6586 6.96226 29.6976 8.30103C31.7365 9.63981 33.3393 11.5459 34.3083 13.7844C34.4797 14.1817 34.6309 14.5874 34.7614 15H35.3333C35.9963 15 36.6322 15.2634 37.101 15.7322C37.5699 16.2011 37.8333 16.837 37.8333 17.5Z" fill="#242020"/>
<path d="M30.3333 18.125C30.3333 18.4958 30.2233 18.8584 30.0173 19.1667C29.8112 19.475 29.5184 19.7154 29.1758 19.8573C28.8332 19.9992 28.4562 20.0363 28.0925 19.964C27.7287 19.8916 27.3947 19.713 27.1324 19.4508C26.8702 19.1886 26.6916 18.8545 26.6193 18.4908C26.5469 18.1271 26.5841 17.7501 26.726 17.4075C26.8679 17.0649 27.1082 16.772 27.4166 16.566C27.7249 16.36 28.0874 16.25 28.4583 16.25C28.9555 16.25 29.4325 16.4475 29.7841 16.7992C30.1357 17.1508 30.3333 17.6277 30.3333 18.125ZM24.0833 10H17.8333C17.5017 10 17.1838 10.1317 16.9494 10.3661C16.715 10.6005 16.5833 10.9185 16.5833 11.25C16.5833 11.5815 16.715 11.8995 16.9494 12.1339C17.1838 12.3683 17.5017 12.5 17.8333 12.5H24.0833C24.4148 12.5 24.7327 12.3683 24.9671 12.1339C25.2016 11.8995 25.3333 11.5815 25.3333 11.25C25.3333 10.9185 25.2016 10.6005 24.9671 10.3661C24.7327 10.1317 24.4148 10 24.0833 10ZM39.0833 17.5V22.5C39.0833 23.4946 38.6882 24.4484 37.9849 25.1517C37.2816 25.8549 36.3278 26.25 35.3333 26.25H34.9645L32.4317 33.3406C32.2583 33.8263 31.9389 34.2465 31.5174 34.5435C31.0958 34.8406 30.5927 35.0001 30.077 35H28.0895C27.5738 35.0001 27.0707 34.8406 26.6491 34.5435C26.2276 34.2465 25.9082 33.8263 25.7348 33.3406L25.4348 32.5H16.4817L16.1817 33.3406C16.0083 33.8263 15.6889 34.2465 15.2674 34.5435C14.8458 34.8406 14.3427 35.0001 13.827 35H11.8395C11.3238 35.0001 10.8207 34.8406 10.3991 34.5435C9.97759 34.2465 9.65822 33.8263 9.48482 33.3406L7.52075 27.8469C5.65229 25.7322 4.48233 23.0921 4.17075 20.2875C3.76735 20.4994 3.42953 20.8175 3.1938 21.2074C2.95807 21.5974 2.83339 22.0443 2.83325 22.5C2.83325 22.8315 2.70156 23.1495 2.46714 23.3839C2.23272 23.6183 1.91477 23.75 1.58325 23.75C1.25173 23.75 0.933789 23.6183 0.699369 23.3839C0.464948 23.1495 0.333252 22.8315 0.333252 22.5C0.335162 21.3853 0.709537 20.3031 1.3969 19.4255C2.08426 18.5479 3.04518 17.9252 4.127 17.6562C4.40625 14.2114 5.97079 10.9976 8.50994 8.65301C11.0491 6.30837 14.3772 5.00439 17.8333 5H34.0833C34.4148 5 34.7327 5.1317 34.9671 5.36612C35.2016 5.60054 35.3333 5.91848 35.3333 6.25C35.3333 6.58152 35.2016 6.89946 34.9671 7.13388C34.7327 7.3683 34.4148 7.5 34.0833 7.5H30.7411C32.8155 8.95546 34.447 10.9563 35.4551 13.2812C35.5223 13.4375 35.5879 13.5938 35.6504 13.75C36.589 13.8297 37.4633 14.2597 38.0993 14.9545C38.7354 15.6493 39.0866 16.558 39.0833 17.5ZM36.5833 17.5C36.5833 17.1685 36.4516 16.8505 36.2171 16.6161C35.9827 16.3817 35.6648 16.25 35.3333 16.25H34.7614C34.4952 16.2503 34.2358 16.1656 34.0211 16.0082C33.8064 15.8508 33.6475 15.629 33.5676 15.375C32.8515 13.0896 31.4237 11.0928 29.4926 9.67617C27.5615 8.25949 25.2283 7.49701 22.8333 7.5H17.8333C15.65 7.49989 13.5139 8.13505 11.6854 9.32803C9.85689 10.521 8.41504 12.2203 7.53564 14.2186C6.65624 16.2169 6.3773 18.4279 6.73284 20.582C7.08838 22.7362 8.06303 24.7403 9.53794 26.35C9.65073 26.4727 9.73785 26.6166 9.79419 26.7734L11.8395 32.5H13.827L14.4239 30.8297C14.5105 30.587 14.6701 30.377 14.8807 30.2285C15.0913 30.0799 15.3427 30.0001 15.6004 30H26.3161C26.5738 30.0001 26.8252 30.0799 27.0358 30.2285C27.2464 30.377 27.406 30.587 27.4926 30.8297L28.0895 32.5H30.077L32.9067 24.5797C32.9934 24.337 33.1529 24.127 33.3635 23.9785C33.5742 23.8299 33.8255 23.7501 34.0833 23.75H35.3333C35.6648 23.75 35.9827 23.6183 36.2171 23.3839C36.4516 23.1495 36.5833 22.8315 36.5833 22.5V17.5Z" fill="#242020"/>
</g>
<defs>
<clipPath id="clip0_160_1179">
<rect width="40" height="40" fill="white" transform="translate(0.333252)"/>
</clipPath>
</defs>
</svg>
