<svg width="102" height="106" viewBox="0 0 102 106" fill="none" xmlns="http://www.w3.org/2000/svg">
<path d="M93.9585 12.375L55.2085 12.375V4.625C55.2085 3.59729 54.8002 2.61166 54.0735 1.88496C53.3468 1.15826 52.3612 0.75 51.3335 0.75C50.3058 0.75 49.3202 1.15826 48.5935 1.88496C47.8668 2.61166 47.4585 3.59729 47.4585 4.625V12.375L8.7085 12.375C6.65307 12.375 4.68183 13.1915 3.22842 14.6449C1.77501 16.0983 0.958496 18.0696 0.958496 20.125L0.958496 78.25C0.958496 80.3054 1.77501 82.2767 3.22842 83.7301C4.68183 85.1835 6.65307 86 8.7085 86H27.7735L17.3062 99.0781C16.6638 99.881 16.3668 100.906 16.4803 101.928C16.5939 102.95 17.1087 103.885 17.9116 104.527C18.7145 105.17 19.7397 105.467 20.7616 105.353C21.7836 105.24 22.7185 104.725 23.3608 103.922L37.6935 86L64.9735 86L79.3062 103.922C79.6242 104.319 80.0174 104.65 80.4634 104.896C80.9094 105.142 81.3994 105.297 81.9054 105.353C82.4114 105.409 82.9235 105.365 83.4125 105.224C83.9015 105.082 84.3578 104.845 84.7554 104.527C85.1529 104.209 85.4839 103.816 85.7295 103.37C85.9751 102.924 86.1305 102.434 86.1867 101.928C86.2429 101.422 86.1989 100.91 86.0572 100.421C85.9155 99.932 85.6789 99.4757 85.3608 99.0781L74.8935 86H93.9585C96.0139 86 97.9852 85.1835 99.4386 83.7301C100.892 82.2767 101.708 80.3054 101.708 78.25L101.708 20.125C101.708 18.0696 100.892 16.0983 99.4386 14.6449C97.9852 13.1915 96.0139 12.375 93.9585 12.375ZM93.9585 78.25L8.7085 78.25L8.7085 20.125L93.9585 20.125L93.9585 78.25ZM39.7085 51.125V62.75C39.7085 63.7777 39.3002 64.7633 38.5735 65.49C37.8468 66.2168 36.8612 66.625 35.8335 66.625C34.8058 66.625 33.8202 66.2168 33.0935 65.49C32.3668 64.7633 31.9585 63.7777 31.9585 62.75V51.125C31.9585 50.0973 32.3668 49.1117 33.0935 48.385C33.8202 47.6583 34.8058 47.25 35.8335 47.25C36.8612 47.25 37.8468 47.6583 38.5735 48.385C39.3002 49.1117 39.7085 50.0973 39.7085 51.125ZM55.2085 43.375V62.75C55.2085 63.7777 54.8002 64.7633 54.0735 65.49C53.3468 66.2168 52.3612 66.625 51.3335 66.625C50.3058 66.625 49.3202 66.2168 48.5935 65.49C47.8668 64.7633 47.4585 63.7777 47.4585 62.75V43.375C47.4585 42.3473 47.8668 41.3617 48.5935 40.635C49.3202 39.9083 50.3058 39.5 51.3335 39.5C52.3612 39.5 53.3468 39.9083 54.0735 40.635C54.8002 41.3617 55.2085 42.3473 55.2085 43.375ZM70.7085 35.625V62.75C70.7085 63.7777 70.3002 64.7633 69.5735 65.49C68.8468 66.2168 67.8612 66.625 66.8335 66.625C65.8058 66.625 64.8202 66.2168 64.0935 65.49C63.3668 64.7633 62.9585 63.7777 62.9585 62.75V35.625C62.9585 34.5973 63.3668 33.6117 64.0935 32.885C64.8202 32.1583 65.8058 31.75 66.8335 31.75C67.8612 31.75 68.8468 32.1583 69.5735 32.885C70.3002 33.6117 70.7085 34.5973 70.7085 35.625Z" fill="#137337"/>
</svg>
