<svg width="40" height="40" viewBox="0 0 40 40" fill="none" xmlns="http://www.w3.org/2000/svg">
<path opacity="0.2" d="M35 8.7502V27.5002C25 36.1611 17.5 18.8393 7.5 27.5002L7.5 8.7502C17.5 0.0892596 25 17.4111 35 8.7502Z" fill="#4CBEF6"/>
<path d="M6.68125 7.81255C6.54677 7.92911 6.43874 8.07304 6.36437 8.23472C6.29 8.3964 6.251 8.57209 6.25 8.75005L6.25 35.0001C6.25 35.3316 6.3817 35.6495 6.61612 35.8839C6.85054 36.1184 7.16848 36.2501 7.5 36.2501C7.83152 36.2501 8.14946 36.1184 8.38388 35.8839C8.6183 35.6495 8.75 35.3316 8.75 35.0001V28.0891C12.9359 24.7829 16.5422 26.5657 20.6953 28.6219C23.2578 29.8891 26.0172 31.2547 28.9766 31.2547C31.1531 31.2547 33.4359 30.5126 35.8234 28.4422C35.9579 28.3257 36.0659 28.1817 36.1403 28.0201C36.2147 27.8584 36.2537 27.6827 36.2547 27.5047V8.75005C36.2541 8.51012 36.1845 8.27543 36.0542 8.07398C35.9239 7.87254 35.7383 7.71286 35.5197 7.61401C35.3011 7.51517 35.0586 7.48132 34.8213 7.51653C34.5839 7.55173 34.3618 7.6545 34.1812 7.81255C29.8062 11.5985 26.1 9.76411 21.8047 7.63755C17.3547 5.4313 12.3094 2.93599 6.68125 7.81255ZM33.75 26.9141C29.5641 30.2204 25.9578 28.436 21.8047 26.3813C17.8984 24.4516 13.5531 22.2985 8.75 25.0688L8.75 9.34224C12.9359 6.03599 16.5422 7.8188 20.6953 9.87349C24.6016 11.8032 28.9484 13.9563 33.75 11.186V26.9141Z" fill="black"/>
</svg>
