<svg width="41" height="40" viewBox="0 0 41 40" fill="none" xmlns="http://www.w3.org/2000/svg">
<path opacity="0.2" d="M35.6665 19.9998C35.6688 22.1034 35.2274 24.1839 34.3712 26.1054C33.5151 28.0269 32.2633 29.7463 30.6978 31.1513C29.7565 29.2999 28.3211 27.7452 26.5505 26.6594C24.78 25.5737 22.7435 24.9992 20.6665 24.9998C21.9026 24.9998 23.111 24.6332 24.1388 23.9465C25.1666 23.2597 25.9677 22.2836 26.4408 21.1415C26.9138 19.9995 27.0376 18.7428 26.7964 17.5305C26.5553 16.3181 25.96 15.2044 25.0859 14.3304C24.2118 13.4563 23.0982 12.861 21.8858 12.6199C20.6734 12.3787 19.4168 12.5025 18.2747 12.9755C17.1327 13.4486 16.1566 14.2497 15.4698 15.2775C14.7831 16.3053 14.4165 17.5136 14.4165 18.7498C14.4165 20.4074 15.075 21.9971 16.2471 23.1692C17.4192 24.3413 19.0089 24.9998 20.6665 24.9998C18.5896 24.9992 16.553 25.5737 14.7825 26.6594C13.0119 27.7452 11.5765 29.2999 10.6353 31.1513C8.77628 29.4792 7.36477 27.3689 6.5291 25.0124C5.69342 22.6558 5.46009 20.1277 5.85031 17.658C6.24053 15.1883 7.24194 12.8553 8.76346 10.8712C10.285 8.88707 12.2783 7.31477 14.5623 6.29726C16.8462 5.27974 19.3483 4.8493 21.841 5.04508C24.3337 5.24085 26.7379 6.05663 28.835 7.41823C30.932 8.77983 32.6555 10.6441 33.8486 12.8414C35.0417 15.0387 35.6666 17.4994 35.6665 19.9998Z" fill="#242020"/>
<path d="M35.2524 16.2672C34.9254 16.3219 34.6336 16.5043 34.4411 16.7741C34.2485 17.044 34.1711 17.3793 34.2258 17.7063C34.3527 18.4643 34.4165 19.2315 34.4164 20C34.4194 23.3659 33.1823 26.615 30.9414 29.1266C29.5473 27.1064 27.587 25.5435 25.307 24.6344C26.5318 23.6698 27.4254 22.3475 27.8638 20.8514C28.3022 19.3553 28.2634 17.7598 27.753 16.2868C27.2426 14.8138 26.2858 13.5364 25.0157 12.6323C23.7456 11.7283 22.2254 11.2425 20.6664 11.2425C19.1074 11.2425 17.5872 11.7283 16.3171 12.6323C15.0471 13.5364 14.0903 14.8138 13.5798 16.2868C13.0694 17.7598 13.0307 19.3553 13.469 20.8514C13.9074 22.3475 14.8011 23.6698 16.0258 24.6344C13.7458 25.5435 11.7855 27.1064 10.3914 29.1266C8.63317 27.1453 7.48466 24.6983 7.08399 22.0798C6.68332 19.4613 7.04755 16.7828 8.13289 14.3664C9.21822 11.95 10.9785 9.89848 13.2019 8.45862C15.4254 7.01876 18.0175 6.25182 20.6664 6.25002C21.435 6.2499 22.2022 6.31366 22.9602 6.44064C23.2857 6.492 23.6183 6.41276 23.8856 6.22016C24.153 6.02756 24.3335 5.73717 24.3879 5.41218C24.4422 5.08718 24.3661 4.75386 24.176 4.48472C23.9858 4.21558 23.6972 4.0324 23.3727 3.97502C19.9781 3.40395 16.4898 3.92648 13.4115 5.46716C10.3332 7.00785 7.82418 9.48697 6.24671 12.5466C4.66924 15.6062 4.10495 19.0879 4.63529 22.4892C5.16564 25.8904 6.76319 29.0351 9.19728 31.4692C11.6314 33.9033 14.776 35.5008 18.1773 36.0311C21.5785 36.5615 25.0603 35.9972 28.1199 34.4197C31.1795 32.8423 33.6586 30.3333 35.1993 27.255C36.74 24.1767 37.2625 20.6884 36.6914 17.2938C36.6367 16.9668 36.4544 16.675 36.1845 16.4825C35.9146 16.29 35.5793 16.2125 35.2524 16.2672ZM15.6664 18.75C15.6664 17.7611 15.9597 16.7944 16.5091 15.9722C17.0585 15.1499 17.8394 14.5091 18.753 14.1306C19.6666 13.7522 20.672 13.6532 21.6419 13.8461C22.6118 14.039 23.5027 14.5152 24.202 15.2145C24.9012 15.9137 25.3774 16.8047 25.5703 17.7746C25.7633 18.7445 25.6643 19.7498 25.2858 20.6634C24.9074 21.5771 24.2665 22.358 23.4443 22.9074C22.622 23.4568 21.6553 23.75 20.6664 23.75C19.3403 23.75 18.0686 23.2232 17.1309 22.2856C16.1932 21.3479 15.6664 20.0761 15.6664 18.75ZM12.2414 30.8594C13.1457 29.4451 14.3914 28.2813 15.8638 27.4751C17.3362 26.6689 18.9878 26.2464 20.6664 26.2464C22.3451 26.2464 23.9967 26.6689 25.469 27.4751C26.9414 28.2813 28.1871 29.4451 29.0914 30.8594C26.6826 32.7328 23.718 33.7499 20.6664 33.7499C17.6148 33.7499 14.6503 32.7328 12.2414 30.8594ZM37.8008 7.13439L32.8008 12.1344C32.6847 12.2506 32.5468 12.3428 32.3951 12.4057C32.2434 12.4686 32.0807 12.501 31.9164 12.501C31.7522 12.501 31.5895 12.4686 31.4377 12.4057C31.286 12.3428 31.1481 12.2506 31.032 12.1344L28.532 9.63439C28.4159 9.51826 28.3238 9.38038 28.2609 9.22864C28.1981 9.0769 28.1657 8.91426 28.1657 8.75002C28.1657 8.58577 28.1981 8.42314 28.2609 8.2714C28.3238 8.11966 28.4159 7.98178 28.532 7.86564C28.7666 7.63109 29.0847 7.49932 29.4164 7.49932C29.5807 7.49932 29.7433 7.53167 29.895 7.59453C30.0468 7.65738 30.1847 7.74951 30.3008 7.86564L31.9164 9.48283L36.032 5.36564C36.1482 5.2495 36.2861 5.15738 36.4378 5.09453C36.5895 5.03167 36.7522 4.99932 36.9164 4.99932C37.0807 4.99932 37.2433 5.03167 37.395 5.09453C37.5468 5.15738 37.6847 5.2495 37.8008 5.36564C37.9169 5.48178 38.0091 5.61966 38.0719 5.7714C38.1348 5.92314 38.1671 6.08577 38.1671 6.25002C38.1671 6.41426 38.1348 6.5769 38.0719 6.72864C38.0091 6.88038 37.9169 7.01825 37.8008 7.13439Z" fill="#242020"/>
</svg>
