<svg width="124" height="124" viewBox="0 0 124 124" fill="none" xmlns="http://www.w3.org/2000/svg">
<path opacity="0.2" d="M104.625 65.875V104.625H19.375V42.625L50.375 65.875V42.625L81.375 65.875H104.625Z" fill="#137337"/>
<path d="M56.1875 85.25C56.1875 86.2777 55.7792 87.2633 55.0525 87.99C54.3258 88.7167 53.3402 89.125 52.3125 89.125H38.75C37.7223 89.125 36.7367 88.7167 36.01 87.99C35.2833 87.2633 34.875 86.2777 34.875 85.25C34.875 84.2223 35.2833 83.2367 36.01 82.51C36.7367 81.7833 37.7223 81.375 38.75 81.375H52.3125C53.3402 81.375 54.3258 81.7833 55.0525 82.51C55.7792 83.2367 56.1875 84.2223 56.1875 85.25ZM85.25 81.375H71.6875C70.6598 81.375 69.6742 81.7833 68.9475 82.51C68.2208 83.2367 67.8125 84.2223 67.8125 85.25C67.8125 86.2777 68.2208 87.2633 68.9475 87.99C69.6742 88.7167 70.6598 89.125 71.6875 89.125H85.25C86.2777 89.125 87.2633 88.7167 87.99 87.99C88.7167 87.2633 89.125 86.2777 89.125 85.25C89.125 84.2223 88.7167 83.2367 87.99 82.51C87.2633 81.7833 86.2777 81.375 85.25 81.375ZM116.25 104.625C116.25 105.653 115.842 106.638 115.115 107.365C114.388 108.092 113.403 108.5 112.375 108.5H11.625C10.5973 108.5 9.61166 108.092 8.88496 107.365C8.15826 106.638 7.75 105.653 7.75 104.625C7.75 103.597 8.15826 102.612 8.88496 101.885C9.61166 101.158 10.5973 100.75 11.625 100.75H15.5V42.625C15.5 41.9054 15.7004 41.1999 16.0787 40.5878C16.4571 39.9756 16.9984 39.4809 17.642 39.1591C18.2857 38.8373 19.0063 38.701 19.723 38.7657C20.4397 38.8303 21.1243 39.0932 21.7 39.525L46.5 58.125V42.625C46.5 41.9054 46.7004 41.1999 47.0787 40.5878C47.4571 39.9756 47.9984 39.4809 48.642 39.1591C49.2857 38.8373 50.0063 38.701 50.723 38.7657C51.4397 38.8303 52.1243 39.0932 52.7 39.525L71.4647 53.5961L77.0641 14.4053C77.3352 12.5616 78.2585 10.8761 79.6663 9.65501C81.074 8.43388 82.873 7.75798 84.7366 7.75H93.5134C95.377 7.75798 97.176 8.43388 98.5837 9.65501C99.9915 10.8761 100.915 12.5616 101.186 14.4053L108.452 65.3277C108.452 65.3277 108.49 65.7055 108.49 65.875V100.75H112.365C112.875 100.749 113.38 100.848 113.851 101.042C114.322 101.236 114.751 101.522 115.112 101.882C115.472 102.241 115.759 102.669 115.954 103.14C116.149 103.611 116.25 104.115 116.25 104.625ZM78.5366 58.9L82.6683 62H100.159L93.5134 15.5H84.7366L78.5366 58.9ZM23.25 100.75H100.75V69.75H81.375C80.5366 69.75 79.7207 69.4781 79.05 68.975L72.075 63.7438L54.25 50.375V65.875C54.25 66.5946 54.0496 67.3001 53.6713 67.9122C53.2929 68.5244 52.7516 69.0191 52.108 69.3409C51.4643 69.6627 50.7437 69.799 50.027 69.7343C49.3103 69.6697 48.6257 69.4068 48.05 68.975L23.25 50.375V100.75Z" fill="#137337"/>
</svg>
