<svg width="41" height="40" viewBox="0 0 41 40" fill="none" xmlns="http://www.w3.org/2000/svg">
<path opacity="0.2" d="M36.75 8.75V31.25L25.5 31.25C24.1739 31.25 22.9021 31.7768 21.9645 32.7145C21.0268 33.6521 20.5 34.9239 20.5 36.25L20.5 13.75C20.5 12.4239 21.0268 11.1521 21.9645 10.2145C22.9021 9.27678 24.1739 8.75 25.5 8.75L36.75 8.75Z" fill="#EF484B"/>
<path d="M36.75 7.5L25.5 7.5C24.5297 7.5 23.5728 7.72591 22.7049 8.15983C21.8371 8.59375 21.0822 9.22377 20.5 10C19.9178 9.22377 19.1629 8.59375 18.2951 8.15983C17.4272 7.72591 16.4703 7.5 15.5 7.5L4.25 7.5C3.91848 7.5 3.60054 7.6317 3.36612 7.86612C3.1317 8.10054 3 8.41848 3 8.75L3 31.25C3 31.5815 3.1317 31.8995 3.36612 32.1339C3.60054 32.3683 3.91848 32.5 4.25 32.5H15.5C16.4946 32.5 17.4484 32.8951 18.1517 33.5983C18.8549 34.3016 19.25 35.2554 19.25 36.25C19.25 36.5815 19.3817 36.8995 19.6161 37.1339C19.8505 37.3683 20.1685 37.5 20.5 37.5C20.8315 37.5 21.1495 37.3683 21.3839 37.1339C21.6183 36.8995 21.75 36.5815 21.75 36.25C21.75 35.2554 22.1451 34.3016 22.8483 33.5983C23.5516 32.8951 24.5054 32.5 25.5 32.5H36.75C37.0815 32.5 37.3995 32.3683 37.6339 32.1339C37.8683 31.8995 38 31.5815 38 31.25V8.75C38 8.41848 37.8683 8.10054 37.6339 7.86612C37.3995 7.6317 37.0815 7.5 36.75 7.5ZM15.5 30H5.5L5.5 10L15.5 10C16.4946 10 17.4484 10.3951 18.1517 11.0983C18.8549 11.8016 19.25 12.7554 19.25 13.75L19.25 31.25C18.1692 30.4367 16.8527 29.9978 15.5 30ZM35.5 30H25.5C24.1473 29.9978 22.8308 30.4367 21.75 31.25L21.75 13.75C21.75 12.7554 22.1451 11.8016 22.8483 11.0983C23.5516 10.3951 24.5054 10 25.5 10H35.5V30ZM25.5 13.75H31.75C32.0815 13.75 32.3995 13.8817 32.6339 14.1161C32.8683 14.3505 33 14.6685 33 15C33 15.3315 32.8683 15.6495 32.6339 15.8839C32.3995 16.1183 32.0815 16.25 31.75 16.25L25.5 16.25C25.1685 16.25 24.8505 16.1183 24.6161 15.8839C24.3817 15.6495 24.25 15.3315 24.25 15C24.25 14.6685 24.3817 14.3505 24.6161 14.1161C24.8505 13.8817 25.1685 13.75 25.5 13.75ZM33 20C33 20.3315 32.8683 20.6495 32.6339 20.8839C32.3995 21.1183 32.0815 21.25 31.75 21.25L25.5 21.25C25.1685 21.25 24.8505 21.1183 24.6161 20.8839C24.3817 20.6495 24.25 20.3315 24.25 20C24.25 19.6685 24.3817 19.3505 24.6161 19.1161C24.8505 18.8817 25.1685 18.75 25.5 18.75L31.75 18.75C32.0815 18.75 32.3995 18.8817 32.6339 19.1161C32.8683 19.3505 33 19.6685 33 20ZM33 25C33 25.3315 32.8683 25.6495 32.6339 25.8839C32.3995 26.1183 32.0815 26.25 31.75 26.25H25.5C25.1685 26.25 24.8505 26.1183 24.6161 25.8839C24.3817 25.6495 24.25 25.3315 24.25 25C24.25 24.6685 24.3817 24.3505 24.6161 24.1161C24.8505 23.8817 25.1685 23.75 25.5 23.75H31.75C32.0815 23.75 32.3995 23.8817 32.6339 24.1161C32.8683 24.3505 33 24.6685 33 25Z" fill="black"/>
</svg>
