<svg width="40" height="40" viewBox="0 0 40 40" fill="none" xmlns="http://www.w3.org/2000/svg">
<path opacity="0.2" d="M24.9999 25L17.0702 32.9297C15.7441 34.2556 13.9455 35.0004 12.0702 35.0004C10.1949 35.0004 8.39643 34.2556 7.07025 32.9297C5.74436 31.6035 4.99951 29.805 4.99951 27.9297C4.99951 26.0544 5.74436 24.2559 7.07025 22.9297L14.9999 15L24.9999 25Z" fill="#4CBEF6"/>
<path d="M33.8173 6.18748C32.2564 4.62677 30.1395 3.75 27.9321 3.75C25.7248 3.75 23.6079 4.62677 22.047 6.18748L6.18761 22.0453C4.65962 23.6126 3.81066 25.7188 3.82463 27.9076C3.83861 30.0965 4.7144 32.1917 6.26227 33.7394C7.81015 35.287 9.90547 36.1625 12.0943 36.1762C14.2831 36.1899 16.3892 35.3407 17.9564 33.8125L33.8173 17.9547C35.3751 16.3929 36.25 14.277 36.25 12.0711C36.25 9.86515 35.3751 7.74927 33.8173 6.18748ZM16.1892 32.0453C15.0974 33.1372 13.6166 33.7508 12.0725 33.7509C10.5284 33.7511 9.04752 33.1378 7.95558 32.0461C6.86363 30.9543 6.2501 29.4735 6.24995 27.9294C6.24981 26.3853 6.86306 24.9044 7.95479 23.8125L15.0001 16.7672L23.2345 25L16.1892 32.0453ZM32.0485 16.1875L25.0001 23.2328L16.7689 15L23.8157 7.95466C24.9118 6.88392 26.3858 6.28844 27.9181 6.2974C29.4503 6.30635 30.9172 6.919 32.0007 8.00248C33.0842 9.08597 33.6969 10.5529 33.7058 12.0852C33.7148 13.6174 33.1193 15.0914 32.0485 16.1875ZM29.6376 12.8656C29.7538 12.9817 29.846 13.1196 29.9089 13.2713C29.9718 13.423 30.0042 13.5857 30.0042 13.75C30.0042 13.9142 29.9718 14.0769 29.9089 14.2287C29.846 14.3804 29.7538 14.5183 29.6376 14.6344L25.8876 18.3844C25.7715 18.5004 25.6336 18.5924 25.4819 18.6552C25.3302 18.7179 25.1676 18.7502 25.0035 18.7501C24.8393 18.75 24.6767 18.7176 24.5251 18.6547C24.3734 18.5919 24.2357 18.4997 24.1196 18.3836C24.0036 18.2674 23.9116 18.1296 23.8488 17.9779C23.7861 17.8262 23.7538 17.6636 23.7539 17.4994C23.7539 17.3353 23.7864 17.1727 23.8492 17.0211C23.9121 16.8694 24.0043 16.7316 24.1204 16.6156L27.8704 12.8656C28.1048 12.6314 28.4226 12.4998 28.754 12.4998C29.0854 12.4998 29.4032 12.6314 29.6376 12.8656Z" fill="black"/>
</svg>
