<svg width="48" height="48" viewBox="0 0 48 48" fill="none" xmlns="http://www.w3.org/2000/svg">
<path opacity="0.2" d="M40.5 28.5V33H7.5V28.5C7.5 24.1239 9.23839 19.9271 12.3327 16.8327C15.4271 13.7384 19.6239 12 24 12C28.3761 12 32.5729 13.7384 35.6673 16.8327C38.7616 19.9271 40.5 24.1239 40.5 28.5Z" fill="#137337"/>
<path d="M4.5 34.5H43.5C43.8978 34.5 44.2794 34.342 44.5607 34.0607C44.842 33.7794 45 33.3978 45 33C45 32.6022 44.842 32.2206 44.5607 31.9393C44.2794 31.658 43.8978 31.5 43.5 31.5H42V28.5C41.9945 23.9875 40.2964 19.6412 37.2413 16.3201C34.1862 12.9991 29.9964 10.945 25.5 10.5638V7.5H28.5C28.8978 7.5 29.2794 7.34196 29.5607 7.06066C29.842 6.77936 30 6.39782 30 6C30 5.60218 29.842 5.22064 29.5607 4.93934C29.2794 4.65804 28.8978 4.5 28.5 4.5H19.5C19.1022 4.5 18.7206 4.65804 18.4393 4.93934C18.158 5.22064 18 5.60218 18 6C18 6.39782 18.158 6.77936 18.4393 7.06066C18.7206 7.34196 19.1022 7.5 19.5 7.5H22.5V10.5638C18.0036 10.945 13.8138 12.9991 10.7587 16.3201C7.70356 19.6412 6.00547 23.9875 6 28.5V31.5H4.5C4.10218 31.5 3.72064 31.658 3.43934 31.9393C3.15804 32.2206 3 32.6022 3 33C3 33.3978 3.15804 33.7794 3.43934 34.0607C3.72064 34.342 4.10218 34.5 4.5 34.5ZM9 28.5C9 24.5218 10.5804 20.7064 13.3934 17.8934C16.2064 15.0804 20.0218 13.5 24 13.5C27.9782 13.5 31.7936 15.0804 34.6066 17.8934C37.4196 20.7064 39 24.5218 39 28.5V31.5H9V28.5ZM45 39C45 39.3978 44.842 39.7794 44.5607 40.0607C44.2794 40.342 43.8978 40.5 43.5 40.5H4.5C4.10218 40.5 3.72064 40.342 3.43934 40.0607C3.15804 39.7794 3 39.3978 3 39C3 38.6022 3.15804 38.2206 3.43934 37.9393C3.72064 37.658 4.10218 37.5 4.5 37.5H43.5C43.8978 37.5 44.2794 37.658 44.5607 37.9393C44.842 38.2206 45 38.6022 45 39Z" fill="#137337"/>
</svg>
