<svg width="209" height="40" viewBox="0 0 209 40" fill="none" xmlns="http://www.w3.org/2000/svg">
<g clip-path="url(#clip0_126_261)">
<path d="M197.234 33.9203C197.234 30.8795 199.699 28.4124 202.733 28.4124C205.768 28.4124 208.23 30.8795 208.23 33.9203C208.23 36.9611 205.768 39.4266 202.733 39.4266C199.699 39.4266 197.234 36.9611 197.234 33.9203Z" fill="#86BC24"/>
<path d="M21.8732 19.3337C21.8732 15.8451 21.2002 13.2569 19.8542 11.5707C18.5066 9.88615 16.4651 9.04465 13.7206 9.04465H10.8012V30.3782H13.0348C16.0833 30.3782 18.3172 29.473 19.7396 27.6562C21.1603 25.8425 21.8732 23.0678 21.8732 19.3337ZM32.2848 18.9704C32.2848 25.3261 30.5792 30.2236 27.168 33.6612C23.7568 37.1005 18.9616 38.8201 12.7803 38.8201H0.769531V0.735054H13.6187C19.5788 0.735054 24.18 2.29848 27.4225 5.42377C30.6635 8.55064 32.2848 13.0641 32.2848 18.9704Z" fill="#0F0B0B"/>
<path d="M65.5547 38.8197H75.1121V0.575256H65.5547V38.8197Z" fill="#0F0B0B"/>
<path d="M88.5383 24.5544C88.5383 26.9928 88.8565 28.8526 89.4914 30.1308C90.1278 31.4105 91.1937 32.0496 92.6924 32.0496C94.1753 32.0496 95.2238 31.4105 95.8347 30.1308C96.4457 28.8526 96.7496 26.9928 96.7496 24.5544C96.7496 22.1287 96.4409 20.2991 95.822 19.064C95.2015 17.8257 94.1436 17.2057 92.6433 17.2057C91.1764 17.2057 90.1278 17.8225 89.4914 19.0497C88.8565 20.2784 88.5383 22.1128 88.5383 24.5544ZM106.477 24.5544C106.477 29.2001 105.262 32.8242 102.824 35.4219C100.388 38.0213 96.9787 39.3217 92.5955 39.3217C88.392 39.3217 85.0459 37.9926 82.5623 35.3342C80.0756 32.6759 78.833 29.0837 78.833 24.5544C78.833 19.923 80.0503 16.3244 82.4877 13.7585C84.9251 11.1926 88.3426 9.90967 92.7434 9.90967C95.4626 9.90967 97.8682 10.5042 99.9525 11.6915C102.038 12.8788 103.649 14.5793 104.78 16.7946C105.913 19.0066 106.477 21.5948 106.477 24.5544Z" fill="#0F0B0B"/>
<path d="M110.272 38.8198H119.831V24.1831V10.4117H110.272V38.8198Z" fill="#0F0B0B"/>
<path d="M110.272 6.9755H119.831V0.57354H110.272V6.9755Z" fill="#0F0B0B"/>
<path d="M139.197 31.574C140.488 31.574 142.024 31.2457 143.817 30.5939V37.7416C142.529 38.309 141.304 38.7154 140.139 38.9561C138.974 39.1999 137.608 39.321 136.044 39.321C132.834 39.321 130.521 38.513 129.1 36.9002C127.686 35.2874 126.976 32.8107 126.976 29.4687V17.7581H123.629V10.4142H126.976V3.15956L136.609 1.48133V10.4142H142.707V17.7581H136.609V28.8153C136.609 30.6544 137.472 31.574 139.197 31.574Z" fill="#0F0B0B"/>
<path d="M161.32 31.574C162.611 31.574 164.148 31.2457 165.941 30.5939V37.7416C164.654 38.309 163.427 38.7154 162.262 38.9561C161.096 39.1999 159.734 39.321 158.167 39.321C154.958 39.321 152.645 38.513 151.227 36.9002C149.809 35.2874 149.1 32.8107 149.1 29.4687V17.7581H145.75V10.4142H149.1V3.0496L158.73 1.48133V10.4142H164.832V17.7581H158.73V28.8153C158.73 30.6544 159.594 31.574 161.32 31.574Z" fill="#0F0B0B"/>
<path d="M178.002 21.0935C178.133 19.538 178.577 18.3985 179.334 17.6702C180.095 16.9434 181.033 16.5801 182.157 16.5801C183.382 16.5801 184.355 16.988 185.078 17.8104C185.805 18.628 186.183 19.7229 186.214 21.0935H178.002ZM191.481 13.2588C189.209 11.0276 185.986 9.91035 181.816 9.91035C177.433 9.91035 174.06 11.1933 171.695 13.7592C169.333 16.3251 168.15 20.0066 168.15 24.8037C168.15 29.4494 169.428 33.032 171.977 35.5469C174.527 38.0618 178.109 39.3209 182.721 39.3209C184.936 39.3209 186.842 39.1695 188.44 38.8683C190.027 38.5702 191.564 38.0315 193.055 37.2538L191.587 30.8518C190.503 31.2949 189.472 31.6359 188.498 31.8607C187.092 32.1874 185.549 32.3515 183.868 32.3515C182.026 32.3515 180.572 31.9005 179.506 30.9984C178.44 30.0948 177.872 28.8485 177.807 27.2612H194.891V22.8992C194.891 18.7029 193.755 15.4884 191.481 13.2588Z" fill="#0F0B0B"/>
<path d="M44.9699 21.0935C45.1003 19.538 45.5442 18.3985 46.3014 17.6702C47.0604 16.9434 48.0009 16.5801 49.1258 16.5801C50.3477 16.5801 51.3213 16.988 52.0453 17.8104C52.7724 18.628 53.1495 19.7229 53.183 21.0935H44.9699ZM58.4508 13.2588C56.1773 11.0276 52.9553 9.91035 48.7837 9.91035C44.3987 9.91035 41.0272 11.1933 38.6644 13.7592C36.3018 16.3251 35.1182 20.0066 35.1182 24.8037C35.1182 29.4494 36.3943 33.032 38.9463 35.5469C41.4951 38.0618 45.0764 39.3209 49.6889 39.3209C51.9036 39.3209 53.8096 39.1695 55.407 38.8683C56.9949 38.5702 58.5321 38.0315 60.0244 37.2538L58.5543 30.8518C57.4707 31.2949 56.4397 31.6359 55.4676 31.8607C54.058 32.1874 52.5162 32.3515 50.8359 32.3515C48.9951 32.3515 47.5396 31.9005 46.4736 30.9984C45.4059 30.0948 44.8396 28.8485 44.7744 27.2612H61.8588V22.8992C61.8588 18.7029 60.7228 15.4884 58.4508 13.2588Z" fill="#0F0B0B"/>
</g>
<defs>
<clipPath id="clip0_126_261">
<rect width="209" height="40" fill="white"/>
</clipPath>
</defs>
</svg>
