<svg width="40" height="40" viewBox="0 0 40 40" fill="none" xmlns="http://www.w3.org/2000/svg">
<path opacity="0.2" d="M34.9999 20.0002C35.0022 22.1038 34.5608 24.1843 33.7046 26.1058C32.8485 28.0273 31.5968 29.7467 30.0312 31.1518C29.0899 29.3004 27.6545 27.7457 25.884 26.6599C24.1134 25.5741 22.0769 24.9997 19.9999 25.0002C21.2361 25.0002 22.4444 24.6337 23.4722 23.9469C24.5 23.2601 25.3011 22.284 25.7742 21.142C26.2472 19.9999 26.371 18.7433 26.1298 17.5309C25.8887 16.3185 25.2934 15.2049 24.4193 14.3308C23.5453 13.4567 22.4316 12.8615 21.2192 12.6203C20.0069 12.3791 18.7502 12.5029 17.6082 12.976C16.4661 13.449 15.49 14.2501 14.8032 15.2779C14.1165 16.3057 13.7499 17.5141 13.7499 18.7502C13.7499 20.4078 14.4084 21.9975 15.5805 23.1696C16.7526 24.3417 18.3423 25.0002 19.9999 25.0002C17.923 24.9997 15.8864 25.5741 14.1159 26.6599C12.3453 27.7457 10.9099 29.3004 9.96867 31.1518C7.10536 28.5762 5.34237 24.9981 5.04486 21.1583C4.74734 17.3186 5.93809 13.5116 8.37048 10.5257C10.8029 7.53985 14.2905 5.60395 18.1111 5.11897C21.9317 4.63399 25.7924 5.6371 28.8937 7.92052C28.738 8.36479 28.711 8.84397 28.8157 9.30292C28.9203 9.76187 29.1525 10.1819 29.4853 10.5148C29.8182 10.8477 30.2383 11.0798 30.6972 11.1845C31.1562 11.2891 31.6353 11.2621 32.0796 11.1065C33.9807 13.6816 35.0044 16.7993 34.9999 20.0002Z" fill="#242020"/>
<path d="M35.664 9.85469L34.9359 9.43438C35.0213 8.98212 35.0213 8.51788 34.9359 8.06563L35.664 7.64531C35.9512 7.47955 36.1607 7.2065 36.2466 6.88622C36.3324 6.56595 36.2875 6.22468 36.1218 5.9375C35.956 5.65032 35.683 5.44075 35.3627 5.35489C35.0424 5.26904 34.7012 5.31393 34.414 5.47969L33.6843 5.90156C33.3351 5.60196 32.9336 5.36942 32.4999 5.21563V4.375C32.4999 4.04348 32.3682 3.72554 32.1338 3.49112C31.8994 3.2567 31.5814 3.125 31.2499 3.125C30.9184 3.125 30.6005 3.2567 30.366 3.49112C30.1316 3.72554 29.9999 4.04348 29.9999 4.375V5.21563C29.5663 5.36942 29.1647 5.60196 28.8155 5.90156L28.0859 5.47969C27.9437 5.39761 27.7867 5.34435 27.6239 5.32293C27.4611 5.30152 27.2957 5.31238 27.1371 5.35489C26.9785 5.39741 26.8299 5.47074 26.6996 5.5707C26.5694 5.67066 26.4601 5.7953 26.378 5.9375C26.296 6.0797 26.2427 6.23667 26.2213 6.39945C26.1999 6.56223 26.2107 6.72764 26.2532 6.88622C26.2958 7.04481 26.3691 7.19347 26.4691 7.32371C26.569 7.45396 26.6937 7.56324 26.8359 7.64531L27.564 8.06563C27.4786 8.51788 27.4786 8.98212 27.564 9.43438L26.8359 9.85469C26.5974 9.99221 26.411 10.2046 26.3056 10.4589C26.2002 10.7131 26.1817 10.9951 26.2529 11.261C26.3242 11.5269 26.4812 11.7618 26.6996 11.9293C26.918 12.0969 27.1856 12.1876 27.4609 12.1875C27.6803 12.1882 27.896 12.1305 28.0859 12.0203L28.8155 11.5984C29.1647 11.898 29.5663 12.1306 29.9999 12.2844V13.125C29.9999 13.4565 30.1316 13.7745 30.366 14.0089C30.6005 14.2433 30.9184 14.375 31.2499 14.375C31.5814 14.375 31.8994 14.2433 32.1338 14.0089C32.3682 13.7745 32.4999 13.4565 32.4999 13.125V12.2844C32.9336 12.1306 33.3351 11.898 33.6843 11.5984L34.414 12.0203C34.6038 12.1305 34.8195 12.1882 35.039 12.1875C35.3142 12.1876 35.5818 12.0969 35.8002 11.9293C36.0186 11.7618 36.1756 11.5269 36.2469 11.261C36.3181 10.9951 36.2996 10.7131 36.1942 10.4589C36.0888 10.2046 35.9024 9.99221 35.664 9.85469ZM29.9999 8.75C29.9999 8.50277 30.0732 8.2611 30.2106 8.05554C30.3479 7.84998 30.5432 7.68976 30.7716 7.59515C31 7.50054 31.2513 7.47579 31.4938 7.52402C31.7363 7.57225 31.959 7.6913 32.1338 7.86612C32.3086 8.04093 32.4277 8.26366 32.4759 8.50614C32.5241 8.74861 32.4994 8.99995 32.4048 9.22835C32.3102 9.45676 32.1499 9.65199 31.9444 9.78934C31.7388 9.92669 31.4971 10 31.2499 10C30.9184 10 30.6005 9.8683 30.366 9.63388C30.1316 9.39946 29.9999 9.08152 29.9999 8.75ZM34.5859 16.2672C34.2589 16.3219 33.9671 16.5043 33.7746 16.7741C33.582 17.044 33.5046 17.3793 33.5593 17.7063C33.6862 18.4642 33.75 19.2315 33.7499 20C33.7529 23.3659 32.5158 26.615 30.2749 29.1266C28.8808 27.1064 26.9205 25.5435 24.6405 24.6344C25.8653 23.6698 26.7589 22.3475 27.1973 20.8514C27.6357 19.3553 27.5969 17.7598 27.0865 16.2868C26.5761 14.8138 25.6193 13.5364 24.3492 12.6323C23.0791 11.7283 21.5589 11.2425 19.9999 11.2425C18.4409 11.2425 16.9207 11.7283 15.6506 12.6323C14.3806 13.5364 13.4238 14.8138 12.9133 16.2868C12.4029 17.7598 12.3642 19.3553 12.8025 20.8514C13.2409 22.3475 14.1346 23.6698 15.3593 24.6344C13.0793 25.5435 11.119 27.1064 9.72492 29.1266C7.96667 27.1453 6.81816 24.6982 6.41749 22.0798C6.01682 19.4613 6.38105 16.7828 7.46638 14.3664C8.55171 11.9499 10.3119 9.89846 12.5354 8.4586C14.7589 7.01875 17.351 6.25181 19.9999 6.25C20.7685 6.24988 21.5357 6.31364 22.2937 6.44063C22.6192 6.49198 22.9518 6.41274 23.2191 6.22014C23.4865 6.02754 23.667 5.73716 23.7214 5.41216C23.7757 5.08716 23.6996 4.75384 23.5095 4.4847C23.3193 4.21557 23.0306 4.03238 22.7062 3.975C19.3115 3.40393 15.8233 3.92646 12.745 5.46715C9.66668 7.00783 7.15767 9.48695 5.58021 12.5466C4.00274 15.6062 3.43844 19.0879 3.96879 22.4892C4.49914 25.8904 6.09668 29.0351 8.53077 31.4691C10.9649 33.9032 14.1095 35.5008 17.5108 36.0311C20.912 36.5615 24.3938 35.9972 27.4534 34.4197C30.513 32.8422 32.9921 30.3332 34.5328 27.2549C36.0735 24.1767 36.596 20.6884 36.0249 17.2938C35.9702 16.9668 35.7879 16.675 35.518 16.4824C35.2481 16.2899 34.9128 16.2125 34.5859 16.2672ZM14.9999 18.75C14.9999 17.7611 15.2932 16.7944 15.8426 15.9722C16.392 15.1499 17.1729 14.509 18.0865 14.1306C19.0001 13.7522 20.0055 13.6531 20.9754 13.8461C21.9453 14.039 22.8362 14.5152 23.5354 15.2145C24.2347 15.9137 24.7109 16.8046 24.9038 17.7745C25.0968 18.7445 24.9978 19.7498 24.6193 20.6634C24.2409 21.577 23.6 22.3579 22.7778 22.9073C21.9555 23.4568 20.9888 23.75 19.9999 23.75C18.6738 23.75 17.4021 23.2232 16.4644 22.2855C15.5267 21.3479 14.9999 20.0761 14.9999 18.75ZM11.5749 30.8594C12.4792 29.4451 13.7249 28.2813 15.1973 27.4751C16.6697 26.6689 18.3213 26.2463 19.9999 26.2463C21.6785 26.2463 23.3302 26.6689 24.8025 27.4751C26.2749 28.2813 27.5206 29.4451 28.4249 30.8594C26.0161 32.7328 23.0515 33.7499 19.9999 33.7499C16.9483 33.7499 13.9838 32.7328 11.5749 30.8594Z" fill="#242020"/>
</svg>
