<svg width="48" height="48" viewBox="0 0 48 48" fill="none" xmlns="http://www.w3.org/2000/svg">
<path opacity="0.2" d="M30 24C30 25.1867 29.6481 26.3467 28.9888 27.3334C28.3295 28.3201 27.3925 29.0892 26.2961 29.5433C25.1997 29.9974 23.9933 30.1162 22.8295 29.8847C21.6656 29.6532 20.5965 29.0818 19.7574 28.2426C18.9182 27.4035 18.3468 26.3344 18.1153 25.1705C17.8838 24.0067 18.0026 22.8003 18.4567 21.7039C18.9109 20.6075 19.6799 19.6705 20.6666 19.0112C21.6533 18.3519 22.8133 18 24 18C25.5913 18 27.1174 18.6321 28.2426 19.7574C29.3679 20.8826 30 22.4087 30 24Z" fill="#137337"/>
<path d="M43.5 22.5H41.9362C41.5763 18.2615 39.729 14.2868 36.7211 11.2789C33.7132 8.27097 29.7385 6.4237 25.5 6.06375V4.5C25.5 4.10218 25.342 3.72064 25.0607 3.43934C24.7794 3.15804 24.3978 3 24 3C23.6022 3 23.2206 3.15804 22.9393 3.43934C22.658 3.72064 22.5 4.10218 22.5 4.5V6.06375C18.2615 6.4237 14.2868 8.27097 11.2789 11.2789C8.27097 14.2868 6.4237 18.2615 6.06375 22.5H4.5C4.10218 22.5 3.72064 22.658 3.43934 22.9393C3.15804 23.2206 3 23.6022 3 24C3 24.3978 3.15804 24.7794 3.43934 25.0607C3.72064 25.342 4.10218 25.5 4.5 25.5H6.06375C6.4237 29.7385 8.27097 33.7132 11.2789 36.7211C14.2868 39.729 18.2615 41.5763 22.5 41.9362V43.5C22.5 43.8978 22.658 44.2794 22.9393 44.5607C23.2206 44.842 23.6022 45 24 45C24.3978 45 24.7794 44.842 25.0607 44.5607C25.342 44.2794 25.5 43.8978 25.5 43.5V41.9362C29.7385 41.5763 33.7132 39.729 36.7211 36.7211C39.729 33.7132 41.5763 29.7385 41.9362 25.5H43.5C43.8978 25.5 44.2794 25.342 44.5607 25.0607C44.842 24.7794 45 24.3978 45 24C45 23.6022 44.842 23.2206 44.5607 22.9393C44.2794 22.658 43.8978 22.5 43.5 22.5ZM25.5 38.925V37.5C25.5 37.1022 25.342 36.7206 25.0607 36.4393C24.7794 36.158 24.3978 36 24 36C23.6022 36 23.2206 36.158 22.9393 36.4393C22.658 36.7206 22.5 37.1022 22.5 37.5V38.925C19.0591 38.5739 15.8447 37.0467 13.399 34.601C10.9533 32.1553 9.42609 28.9409 9.075 25.5H10.5C10.8978 25.5 11.2794 25.342 11.5607 25.0607C11.842 24.7794 12 24.3978 12 24C12 23.6022 11.842 23.2206 11.5607 22.9393C11.2794 22.658 10.8978 22.5 10.5 22.5H9.075C9.42609 19.0591 10.9533 15.8447 13.399 13.399C15.8447 10.9533 19.0591 9.42609 22.5 9.075V10.5C22.5 10.8978 22.658 11.2794 22.9393 11.5607C23.2206 11.842 23.6022 12 24 12C24.3978 12 24.7794 11.842 25.0607 11.5607C25.342 11.2794 25.5 10.8978 25.5 10.5V9.075C28.9409 9.42609 32.1553 10.9533 34.601 13.399C37.0467 15.8447 38.5739 19.0591 38.925 22.5H37.5C37.1022 22.5 36.7206 22.658 36.4393 22.9393C36.158 23.2206 36 23.6022 36 24C36 24.3978 36.158 24.7794 36.4393 25.0607C36.7206 25.342 37.1022 25.5 37.5 25.5H38.925C38.5739 28.9409 37.0467 32.1553 34.601 34.601C32.1553 37.0467 28.9409 38.5739 25.5 38.925ZM24 16.5C22.5166 16.5 21.0666 16.9399 19.8332 17.764C18.5999 18.5881 17.6386 19.7594 17.0709 21.1299C16.5032 22.5003 16.3547 24.0083 16.6441 25.4632C16.9335 26.918 17.6478 28.2544 18.6967 29.3033C19.7456 30.3522 21.082 31.0665 22.5368 31.3559C23.9917 31.6453 25.4997 31.4968 26.8701 30.9291C28.2406 30.3614 29.4119 29.4001 30.236 28.1668C31.0601 26.9334 31.5 25.4834 31.5 24C31.5 22.0109 30.7098 20.1032 29.3033 18.6967C27.8968 17.2902 25.9891 16.5 24 16.5ZM24 28.5C23.11 28.5 22.24 28.2361 21.4999 27.7416C20.7599 27.2471 20.1831 26.5443 19.8425 25.7221C19.5019 24.8998 19.4128 23.995 19.5865 23.1221C19.7601 22.2492 20.1887 21.4474 20.818 20.818C21.4474 20.1887 22.2492 19.7601 23.1221 19.5865C23.995 19.4128 24.8998 19.5019 25.7221 19.8425C26.5443 20.1831 27.2471 20.7599 27.7416 21.4999C28.2361 22.24 28.5 23.11 28.5 24C28.5 25.1935 28.0259 26.3381 27.182 27.182C26.3381 28.0259 25.1935 28.5 24 28.5Z" fill="#137337"/>
</svg>
