<svg width="41" height="40" viewBox="0 0 41 40" fill="none" xmlns="http://www.w3.org/2000/svg">
<path opacity="0.2" d="M34.2391 15.7376C34.1024 12.4714 32.6916 9.38869 30.3091 7.15028C27.9266 4.91187 24.7621 3.69585 21.4937 3.76289C18.2253 3.82992 15.1133 5.17465 12.8246 7.50887C10.5359 9.84308 9.25269 12.981 9.25002 16.2501L5.60158 23.261C5.47578 23.554 5.4667 23.884 5.57621 24.1834C5.68571 24.4829 5.90552 24.7292 6.19064 24.8719L10.5 26.8454V32.5001C10.5 32.8316 10.6317 33.1495 10.8661 33.3839C11.1006 33.6184 11.4185 33.7501 11.75 33.7501H19.25C19.25 34.4131 19.5134 35.049 19.9823 35.5178C20.4511 35.9867 21.087 36.2501 21.75 36.2501H30.5L29.25 26.2501C30.8731 25.035 32.1757 23.4427 33.045 21.611C33.9143 19.7793 34.3241 17.7633 34.2391 15.7376ZM18.0203 11.5751C17.9526 11.0573 18.0487 10.5313 18.2952 10.071C18.5416 9.61059 18.926 9.23896 19.3945 9.0082C19.8629 8.77745 20.3918 8.69917 20.907 8.78434C21.4222 8.86951 21.8978 9.11386 22.267 9.48309C22.6362 9.85232 22.8806 10.3279 22.9657 10.8431C23.0509 11.3583 22.9726 11.8872 22.7419 12.3556C22.5111 12.824 22.1395 13.2085 21.6791 13.4549C21.2188 13.7014 20.6928 13.7975 20.175 13.7297C19.6286 13.6583 19.1211 13.4083 18.7315 13.0186C18.3418 12.629 18.0918 12.1215 18.0203 11.5751ZM23.3328 23.7297C22.8151 23.7975 22.2891 23.7014 21.8287 23.4549C21.3684 23.2085 20.9967 22.824 20.766 22.3556C20.5352 21.8872 20.4569 21.3583 20.5421 20.8431C20.6273 20.3279 20.8716 19.8523 21.2409 19.4831C21.6101 19.1139 22.0857 18.8695 22.6009 18.7843C23.116 18.6992 23.645 18.7775 24.1134 19.0082C24.5818 19.239 24.9662 19.6106 25.2127 20.071C25.4591 20.5313 25.5552 21.0573 25.4875 21.5751C25.4157 22.1226 25.1645 22.631 24.7733 23.0208C24.3821 23.4106 23.8728 23.6599 23.325 23.7297H23.3328Z" fill="#EF484B"/>
<path d="M30.5781 26.7922C32.1588 25.4644 33.4216 23.799 34.2734 21.9185C35.1252 20.038 35.5443 17.9905 35.5 15.9266C35.3437 8.78439 29.6234 2.89532 22.4937 2.52032C20.6542 2.4202 18.8132 2.69077 17.0802 3.31597C15.3473 3.94117 13.7576 4.90824 12.4057 6.15977C11.0537 7.41129 9.96708 8.92174 9.21025 10.6014C8.45342 12.2811 8.04185 14.0957 7.99998 15.9375L4.49217 22.6844C4.4781 22.7125 4.46404 22.7406 4.45154 22.7688C4.20006 23.3549 4.18213 24.0151 4.40144 24.614C4.62075 25.213 5.0607 25.7054 5.63123 25.9906L5.67029 26.0078L9.24998 27.6469V32.5C9.24998 33.163 9.51337 33.7989 9.98221 34.2678C10.4511 34.7366 11.0869 35 11.75 35H19.25C19.5815 35 19.8994 34.8683 20.1339 34.6339C20.3683 34.3995 20.5 34.0815 20.5 33.75C20.5 33.4185 20.3683 33.1005 20.1339 32.8661C19.8994 32.6317 19.5815 32.5 19.25 32.5H11.75V26.8453C11.7502 26.6057 11.6815 26.3711 11.5521 26.1695C11.4227 25.9678 11.2381 25.8076 11.0203 25.7078L6.74998 23.75L10.3547 16.8219C10.4486 16.6458 10.4985 16.4496 10.5 16.25C10.4996 13.7005 11.3652 11.2265 12.9549 9.23342C14.5447 7.2403 16.7643 5.84625 19.25 5.2797V7.71564C18.416 8.01051 17.713 8.59072 17.2654 9.35374C16.8178 10.1167 16.6544 11.0134 16.804 11.8853C16.9536 12.7572 17.4066 13.5481 18.0829 14.1183C18.7592 14.6884 19.6154 15.0012 20.5 15.0012C21.3846 15.0012 22.2407 14.6884 22.9171 14.1183C23.5934 13.5481 24.0464 12.7572 24.196 11.8853C24.3456 11.0134 24.1821 10.1167 23.7345 9.35374C23.2869 8.59072 22.584 8.01051 21.75 7.71564V5.00001C21.9531 5.00001 22.1562 5.00001 22.3594 5.01564C24.576 5.14261 26.7061 5.92034 28.4831 7.25155C30.2601 8.58277 31.6051 10.4084 32.35 12.5H29.25C29.0666 12.4999 28.8855 12.5402 28.7194 12.618C28.5533 12.6958 28.4064 12.8091 28.289 12.95L24.3031 17.7344C23.4718 17.4246 22.5577 17.4188 21.7226 17.718C20.8874 18.0172 20.185 18.6021 19.7395 19.3693C19.294 20.1365 19.1341 21.0365 19.2882 21.9101C19.4423 22.7838 19.9004 23.5748 20.5815 24.1433C21.2625 24.7117 22.1227 25.021 23.0098 25.0165C23.8969 25.0119 24.7539 24.6938 25.429 24.1183C26.1042 23.5429 26.5541 22.7472 26.6992 21.872C26.8443 20.9968 26.6752 20.0985 26.2219 19.3359L29.8359 15H32.9281C32.9656 15.325 32.9885 15.6531 32.9969 15.9844C33.0358 17.7748 32.6484 19.5487 31.8664 21.1598C31.0845 22.7709 29.9306 24.1729 28.5 25.25C28.3237 25.3822 28.1855 25.5586 28.0993 25.7613C28.0131 25.9641 27.9821 26.1861 28.0094 26.4047L29.2594 36.4047C29.2974 36.7066 29.4442 36.9842 29.6723 37.1856C29.9004 37.3869 30.1942 37.4982 30.4984 37.4984C30.5506 37.4984 30.6028 37.4953 30.6547 37.4891C30.8176 37.4688 30.9749 37.4166 31.1177 37.3355C31.2605 37.2544 31.3858 37.146 31.4867 37.0164C31.5875 36.8868 31.6619 36.7386 31.7054 36.5803C31.749 36.422 31.761 36.2567 31.7406 36.0938L30.5781 26.7922ZM20.5 12.5C20.2528 12.5 20.0111 12.4267 19.8055 12.2893C19.6 12.152 19.4397 11.9568 19.3451 11.7284C19.2505 11.5 19.2258 11.2486 19.274 11.0061C19.3222 10.7637 19.4413 10.5409 19.6161 10.3661C19.7909 10.1913 20.0136 10.0723 20.2561 10.024C20.4986 9.9758 20.7499 10.0006 20.9783 10.0952C21.2067 10.1898 21.402 10.35 21.5393 10.5555C21.6767 10.7611 21.75 11.0028 21.75 11.25C21.75 11.5815 21.6183 11.8995 21.3839 12.1339C21.1494 12.3683 20.8315 12.5 20.5 12.5ZM23 22.5C22.7528 22.5 22.5111 22.4267 22.3055 22.2893C22.1 22.152 21.9397 21.9568 21.8451 21.7284C21.7505 21.5 21.7258 21.2486 21.774 21.0061C21.8222 20.7637 21.9413 20.5409 22.1161 20.3661C22.2909 20.1913 22.5136 20.0723 22.7561 20.024C22.9986 19.9758 23.2499 20.0005 23.4783 20.0952C23.7067 20.1898 23.902 20.35 24.0393 20.5555C24.1767 20.7611 24.25 21.0028 24.25 21.25C24.25 21.5815 24.1183 21.8995 23.8839 22.1339C23.6494 22.3683 23.3315 22.5 23 22.5Z" fill="black"/>
</svg>
