<svg width="41" height="40" viewBox="0 0 41 40" fill="none" xmlns="http://www.w3.org/2000/svg">
<g clip-path="url(#clip0_160_1198)">
<path opacity="0.2" d="M39.0833 18.75V28.75C39.0833 29.0815 38.9516 29.3995 38.7171 29.6339C38.4827 29.8683 38.1648 30 37.8333 30H34.0833C34.0833 29.4 33.9394 28.8088 33.6637 28.276C33.3879 27.7432 32.9883 27.2843 32.4985 26.9379C32.0086 26.5914 31.4428 26.3676 30.8485 26.2852C30.2543 26.2027 29.6489 26.2641 29.0833 26.4641C28.3521 26.7226 27.719 27.2014 27.2713 27.8347C26.8235 28.468 26.5832 29.2245 26.5833 30L16.5833 30C16.5833 29.0054 16.1882 28.0516 15.4849 27.3483C14.7816 26.6451 13.8278 26.25 12.8333 26.25C11.8387 26.25 10.8849 26.6451 10.1816 27.3483C9.47834 28.0516 9.08325 29.0054 9.08325 30H5.33325C5.00173 30 4.68379 29.8683 4.44937 29.6339C4.21495 29.3995 4.08325 29.0815 4.08325 28.75L4.08325 11.25C4.08325 10.9185 4.21495 10.6005 4.44937 10.3661C4.68379 10.1317 5.00173 10 5.33325 10L29.0833 10V18.75H39.0833Z" fill="#2F2B2B"/>
<path d="M12.8333 18.75C12.8333 18.4185 12.9649 18.1005 13.1994 17.8661C13.4338 17.6317 13.7517 17.5 14.0833 17.5H16.5833V15C16.5833 14.6685 16.7149 14.3505 16.9494 14.1161C17.1838 13.8817 17.5017 13.75 17.8333 13.75C18.1648 13.75 18.4827 13.8817 18.7171 14.1161C18.9516 14.3505 19.0833 14.6685 19.0833 15V17.5H21.5833C21.9148 17.5 22.2327 17.6317 22.4671 17.8661C22.7016 18.1005 22.8333 18.4185 22.8333 18.75C22.8333 19.0815 22.7016 19.3995 22.4671 19.6339C22.2327 19.8683 21.9148 20 21.5833 20H19.0833V22.5C19.0833 22.8315 18.9516 23.1495 18.7171 23.3839C18.4827 23.6183 18.1648 23.75 17.8333 23.75C17.5017 23.75 17.1838 23.6183 16.9494 23.3839C16.7149 23.1495 16.5833 22.8315 16.5833 22.5V20H14.0833C13.7517 20 13.4338 19.8683 13.1994 19.6339C12.9649 19.3995 12.8333 19.0815 12.8333 18.75ZM40.3333 18.75V28.75C40.3333 29.413 40.0699 30.0489 39.601 30.5178C39.1322 30.9866 38.4963 31.25 37.8333 31.25H35.177C34.9016 32.3255 34.2761 33.2788 33.3991 33.9595C32.5221 34.6403 31.4435 35.0098 30.3333 35.0098C29.223 35.0098 28.1444 34.6403 27.2674 33.9595C26.3904 33.2788 25.7649 32.3255 25.4895 31.25L17.677 31.25C17.4016 32.3255 16.7761 33.2788 15.8991 33.9595C15.0221 34.6403 13.9435 35.0098 12.8333 35.0098C11.723 35.0098 10.6444 34.6403 9.76739 33.9595C8.89038 33.2788 8.26488 32.3255 7.9895 31.25H5.33325C4.67021 31.25 4.03433 30.9866 3.56548 30.5178C3.09664 30.0489 2.83325 29.413 2.83325 28.75L2.83325 11.25C2.83325 10.587 3.09664 9.95107 3.56548 9.48223C4.03433 9.01339 4.67021 8.75 5.33325 8.75L29.0833 8.75C29.4148 8.75 29.7327 8.8817 29.9671 9.11612C30.2016 9.35054 30.3333 9.66848 30.3333 10V11.25H35.7364C36.2365 11.2484 36.7255 11.3975 37.1397 11.6779C37.5539 11.9583 37.874 12.3569 38.0583 12.8219L40.2458 18.2906C40.3038 18.4368 40.3335 18.5927 40.3333 18.75ZM30.3333 13.75V17.5H37.2364L35.7364 13.75H30.3333ZM5.33325 28.75H7.9895C8.26488 27.6745 8.89038 26.7212 9.76739 26.0405C10.6444 25.3597 11.723 24.9902 12.8333 24.9902C13.9435 24.9902 15.0221 25.3597 15.8991 26.0405C16.7761 26.7212 17.4016 27.6745 17.677 28.75L25.4895 28.75C25.6572 28.1076 25.9507 27.5049 26.353 26.9768C26.7553 26.4487 27.2585 26.0057 27.8333 25.6734L27.8333 11.25L5.33325 11.25L5.33325 28.75ZM15.3333 30C15.3333 29.5055 15.1866 29.0222 14.9119 28.6111C14.6372 28.2 14.2468 27.8795 13.79 27.6903C13.3331 27.5011 12.8305 27.4516 12.3455 27.548C11.8606 27.6445 11.4151 27.8826 11.0655 28.2322C10.7159 28.5819 10.4778 29.0273 10.3813 29.5123C10.2848 29.9972 10.3343 30.4999 10.5236 30.9567C10.7128 31.4135 11.0332 31.804 11.4443 32.0787C11.8554 32.3534 12.3388 32.5 12.8333 32.5C13.4963 32.5 14.1322 32.2366 14.601 31.7678C15.0699 31.2989 15.3333 30.663 15.3333 30ZM32.8333 30C32.8333 29.5055 32.6866 29.0222 32.4119 28.6111C32.1372 28.2 31.7468 27.8795 31.29 27.6903C30.8331 27.5011 30.3305 27.4516 29.8455 27.548C29.3606 27.6445 28.9151 27.8826 28.5655 28.2322C28.2159 28.5819 27.9778 29.0273 27.8813 29.5123C27.7848 29.9972 27.8343 30.4999 28.0236 30.9567C28.2128 31.4135 28.5332 31.804 28.9443 32.0787C29.3554 32.3534 29.8388 32.5 30.3333 32.5C30.9963 32.5 31.6322 32.2366 32.101 31.7678C32.5699 31.2989 32.8333 30.663 32.8333 30ZM37.8333 28.75V20H30.3333L30.3333 25C31.4418 25.001 32.5186 25.3697 33.3951 26.0483C34.2716 26.7269 34.8983 27.6771 35.177 28.75H37.8333Z" fill="#2F2B2B"/>
</g>
<defs>
<clipPath id="clip0_160_1198">
<rect width="40" height="40" fill="white" transform="translate(0.333252)"/>
</clipPath>
</defs>
</svg>
