<svg width="41" height="40" viewBox="0 0 41 40" fill="none" xmlns="http://www.w3.org/2000/svg">
<path opacity="0.2" d="M36.9165 25H4.4165L7.93057 10.9469C7.99816 10.6765 8.15421 10.4364 8.3739 10.2648C8.59359 10.0933 8.86432 10 9.14307 10H32.1899C32.4687 10 32.7394 10.0933 32.9591 10.2648C33.1788 10.4364 33.3348 10.6765 33.4024 10.9469L36.9165 25Z" fill="#2F2B2B"/>
<path d="M38.129 24.6969L34.6165 10.6438C34.4812 10.1026 34.1689 9.6223 33.7292 9.27915C33.2895 8.936 32.7477 8.74974 32.1899 8.75H21.9165V6.25C21.9165 5.58696 21.6531 4.95107 21.1843 4.48223C20.7154 4.01339 20.0795 3.75 19.4165 3.75H13.1665C12.5035 3.75 11.8676 4.01339 11.3987 4.48223C10.9299 4.95107 10.6665 5.58696 10.6665 6.25V8.75H9.14307C8.58531 8.74974 8.04348 8.936 7.60378 9.27915C7.16408 9.6223 6.85176 10.1026 6.7165 10.6438L3.204 24.6969C3.17905 24.796 3.16645 24.8978 3.1665 25V30C3.1665 30.663 3.4299 31.2989 3.89874 31.7678C4.36758 32.2366 5.00346 32.5 5.6665 32.5H35.6665C36.3295 32.5 36.9654 32.2366 37.4343 31.7678C37.9031 31.2989 38.1665 30.663 38.1665 30V25C38.1666 24.8978 38.154 24.796 38.129 24.6969ZM13.1665 6.25H19.4165V8.75H13.1665V6.25ZM9.14307 11.25H32.1899L35.3149 23.75H6.01807L9.14307 11.25ZM5.6665 30V26.25H35.6665V30H5.6665ZM10.6665 15C10.6665 14.6685 10.7982 14.3505 11.0326 14.1161C11.267 13.8817 11.585 13.75 11.9165 13.75H14.4165C14.748 13.75 15.066 13.8817 15.3004 14.1161C15.5348 14.3505 15.6665 14.6685 15.6665 15C15.6665 15.3315 15.5348 15.6495 15.3004 15.8839C15.066 16.1183 14.748 16.25 14.4165 16.25H11.9165C11.585 16.25 11.267 16.1183 11.0326 15.8839C10.7982 15.6495 10.6665 15.3315 10.6665 15ZM18.1665 15C18.1665 14.6685 18.2982 14.3505 18.5326 14.1161C18.767 13.8817 19.085 13.75 19.4165 13.75H21.9165C22.248 13.75 22.566 13.8817 22.8004 14.1161C23.0348 14.3505 23.1665 14.6685 23.1665 15C23.1665 15.3315 23.0348 15.6495 22.8004 15.8839C22.566 16.1183 22.248 16.25 21.9165 16.25H19.4165C19.085 16.25 18.767 16.1183 18.5326 15.8839C18.2982 15.6495 18.1665 15.3315 18.1665 15ZM25.6665 15C25.6665 14.6685 25.7982 14.3505 26.0326 14.1161C26.267 13.8817 26.585 13.75 26.9165 13.75H29.4165C29.748 13.75 30.066 13.8817 30.3004 14.1161C30.5348 14.3505 30.6665 14.6685 30.6665 15C30.6665 15.3315 30.5348 15.6495 30.3004 15.8839C30.066 16.1183 29.748 16.25 29.4165 16.25H26.9165C26.585 16.25 26.267 16.1183 26.0326 15.8839C25.7982 15.6495 25.6665 15.3315 25.6665 15ZM10.6665 20C10.6665 19.6685 10.7982 19.3505 11.0326 19.1161C11.267 18.8817 11.585 18.75 11.9165 18.75H14.4165C14.748 18.75 15.066 18.8817 15.3004 19.1161C15.5348 19.3505 15.6665 19.6685 15.6665 20C15.6665 20.3315 15.5348 20.6495 15.3004 20.8839C15.066 21.1183 14.748 21.25 14.4165 21.25H11.9165C11.585 21.25 11.267 21.1183 11.0326 20.8839C10.7982 20.6495 10.6665 20.3315 10.6665 20ZM18.1665 20C18.1665 19.6685 18.2982 19.3505 18.5326 19.1161C18.767 18.8817 19.085 18.75 19.4165 18.75H21.9165C22.248 18.75 22.566 18.8817 22.8004 19.1161C23.0348 19.3505 23.1665 19.6685 23.1665 20C23.1665 20.3315 23.0348 20.6495 22.8004 20.8839C22.566 21.1183 22.248 21.25 21.9165 21.25H19.4165C19.085 21.25 18.767 21.1183 18.5326 20.8839C18.2982 20.6495 18.1665 20.3315 18.1665 20ZM25.6665 20C25.6665 19.6685 25.7982 19.3505 26.0326 19.1161C26.267 18.8817 26.585 18.75 26.9165 18.75H29.4165C29.748 18.75 30.066 18.8817 30.3004 19.1161C30.5348 19.3505 30.6665 19.6685 30.6665 20C30.6665 20.3315 30.5348 20.6495 30.3004 20.8839C30.066 21.1183 29.748 21.25 29.4165 21.25H26.9165C26.585 21.25 26.267 21.1183 26.0326 20.8839C25.7982 20.6495 25.6665 20.3315 25.6665 20Z" fill="#2F2B2B"/>
</svg>
