<svg width="40" height="40" viewBox="0 0 40 40" fill="none" xmlns="http://www.w3.org/2000/svg">
<path opacity="0.2" d="M37.5 13.4375V26.5625C37.4999 26.834 37.4115 27.0982 37.248 27.315C37.0845 27.5317 36.8548 27.6894 36.5938 27.7641L20 32.5V7.5L36.5938 12.2406C36.854 12.3151 37.0831 12.472 37.2466 12.6879C37.41 12.9037 37.4989 13.1668 37.5 13.4375Z" fill="#2F2B2B"/>
<path d="M36.9375 11.039L20.3438 6.29838C20.1748 6.24995 19.9975 6.2377 19.8234 6.26244L3.39687 8.60932C2.80212 8.69679 2.25843 8.99462 1.86452 9.44874C1.47061 9.90286 1.25257 10.4832 1.25 11.0843V28.9156C1.25257 29.5167 1.47061 30.097 1.86452 30.5511C2.25843 31.0053 2.80212 31.3031 3.39687 31.3906L19.8234 33.7343C19.8819 33.7435 19.9409 33.7487 20 33.7499C20.1163 33.7502 20.232 33.7339 20.3438 33.7015L36.9375 28.9609C37.4579 28.8102 37.9157 28.4952 38.2424 28.0629C38.569 27.6306 38.7471 27.1043 38.75 26.5624V13.4374C38.7471 12.8956 38.569 12.3693 38.2424 11.937C37.9157 11.5047 37.4579 11.1897 36.9375 11.039ZM15 18.7499H12.5V9.83432L18.75 8.94057V31.0593L12.5 30.1656V21.2499H15C15.3315 21.2499 15.6495 21.1182 15.8839 20.8838C16.1183 20.6494 16.25 20.3315 16.25 19.9999C16.25 19.6684 16.1183 19.3505 15.8839 19.1161C15.6495 18.8816 15.3315 18.7499 15 18.7499ZM3.75 11.0843L10 10.1906V18.7499H7.5C7.16848 18.7499 6.85054 18.8816 6.61612 19.1161C6.3817 19.3505 6.25 19.6684 6.25 19.9999C6.25 20.3315 6.3817 20.6494 6.61612 20.8838C6.85054 21.1182 7.16848 21.2499 7.5 21.2499H10V29.8093L3.75 28.9156V11.0843ZM21.25 30.8421V9.15775L36.25 13.4374V26.5624L21.25 30.8421Z" fill="#2F2B2B"/>
</svg>
