<svg width="41" height="40" viewBox="0 0 41 40" fill="none" xmlns="http://www.w3.org/2000/svg">
<path opacity="0.2" d="M34.5512 32.4328C33.8587 32.555 33.1469 32.5085 32.4761 32.2972C31.8054 32.0858 31.1955 31.7159 30.6981 31.2188L24.1184 23.75H27.5418C28.7282 23.7513 29.9004 23.4925 30.9759 22.9917C32.0515 22.491 33.0041 21.7606 33.7668 20.8519C34.5295 19.9432 35.0837 18.8783 35.3904 17.7323C35.6971 16.5863 35.7488 15.3869 35.5418 14.2187L38.0981 27.3703C38.2979 28.5118 38.0367 29.686 37.3717 30.6352C36.7068 31.5843 35.6924 32.2308 34.5512 32.4328Z" fill="#4CBEF6"/>
<path d="M28.1669 17.5L24.4169 17.5C24.0853 17.5 23.7674 17.3683 23.533 17.1339C23.2986 16.8995 23.1669 16.5815 23.1669 16.25C23.1669 15.9185 23.2986 15.6005 23.533 15.3661C23.7674 15.1317 24.0853 15 24.4169 15L28.1669 15C28.4984 15 28.8163 15.1317 29.0508 15.3661C29.2852 15.6005 29.4169 15.9185 29.4169 16.25C29.4169 16.5815 29.2852 16.8995 29.0508 17.1339C28.8163 17.3683 28.4984 17.5 28.1669 17.5ZM16.9169 15H15.6669L15.6669 13.75C15.6669 13.4185 15.5352 13.1005 15.3007 12.8661C15.0663 12.6317 14.7484 12.5 14.4169 12.5C14.0853 12.5 13.7674 12.6317 13.533 12.8661C13.2986 13.1005 13.1669 13.4185 13.1669 13.75L13.1669 15H11.9169C11.5853 15 11.2674 15.1317 11.033 15.3661C10.7986 15.6005 10.6669 15.9185 10.6669 16.25C10.6669 16.5815 10.7986 16.8995 11.033 17.1339C11.2674 17.3683 11.5853 17.5 11.9169 17.5H13.1669V18.75C13.1669 19.0815 13.2986 19.3995 13.533 19.6339C13.7674 19.8683 14.0853 20 14.4169 20C14.7484 20 15.0663 19.8683 15.3007 19.6339C15.5352 19.3995 15.6669 19.0815 15.6669 18.75V17.5H16.9169C17.2484 17.5 17.5663 17.3683 17.8007 17.1339C18.0352 16.8995 18.1669 16.5815 18.1669 16.25C18.1669 15.9185 18.0352 15.6005 17.8007 15.3661C17.5663 15.1317 17.2484 15 16.9169 15ZM38.3981 31.3516C37.927 32.0243 37.3143 32.5857 36.6031 32.9963C35.8918 33.407 35.0993 33.6569 34.2811 33.7285C33.463 33.8002 32.6391 33.6918 31.8673 33.411C31.0955 33.1302 30.3946 32.6838 29.8137 32.1031C29.795 32.0844 29.7762 32.0656 29.7591 32.0453L23.5544 25L17.7731 25L11.5747 32.0453L11.52 32.1031C10.4641 33.1568 9.03357 33.749 7.54187 33.75C6.72067 33.7497 5.90951 33.5696 5.16535 33.2223C4.42119 32.8751 3.76209 32.3691 3.23434 31.74C2.7066 31.1108 2.32301 30.3737 2.11052 29.5805C1.89803 28.7873 1.8618 27.9572 2.00437 27.1484C2.00361 27.1412 2.00361 27.1338 2.00437 27.1266L4.56218 13.9875C4.94285 11.8204 6.07508 9.85682 7.75992 8.44174C9.44476 7.02666 11.5744 6.25062 13.7747 6.25L27.5419 6.25C29.7355 6.2535 31.8586 7.02509 33.5426 8.43082C35.2266 9.83654 36.3652 11.7876 36.7606 13.9453C36.7606 13.9547 36.7606 13.9641 36.7606 13.9734L39.3184 27.125C39.3192 27.1323 39.3192 27.1396 39.3184 27.1469C39.4508 27.8738 39.4376 28.6197 39.2796 29.3414C39.1217 30.0632 38.822 30.7464 38.3981 31.3516ZM27.5419 22.5C29.3652 22.5 31.1139 21.7757 32.4032 20.4864C33.6925 19.197 34.4169 17.4484 34.4169 15.625C34.4169 13.8016 33.6925 12.053 32.4032 10.7636C31.1139 9.47433 29.3652 8.75 27.5419 8.75L13.7747 8.75C12.1605 8.75145 10.5986 9.32209 9.3637 10.3615C8.12878 11.401 7.29998 12.8426 7.02312 14.4328V14.4531L4.46374 27.5922C4.35061 28.2436 4.44699 28.9141 4.73902 29.5072C5.03105 30.1004 5.50367 30.5856 6.08892 30.8932C6.67417 31.2007 7.34188 31.3148 7.99603 31.2188C8.65018 31.1229 9.25705 30.822 9.72937 30.3594L16.2794 22.9234C16.3966 22.7904 16.5409 22.6838 16.7025 22.6108C16.8642 22.5378 17.0395 22.5 17.2169 22.5L27.5419 22.5ZM36.87 27.5922L35.5044 20.5609C34.6645 21.9172 33.4924 23.0367 32.099 23.8135C30.7057 24.5903 29.1371 24.9987 27.5419 25H26.8856L31.6044 30.3609C31.9601 30.707 32.3929 30.9638 32.8671 31.1102C33.3414 31.2566 33.8436 31.2884 34.3325 31.2031C35.147 31.0594 35.8713 30.5986 36.3466 29.9217C36.822 29.2448 37.0096 28.4071 36.8684 27.5922H36.87Z" fill="black"/>
</svg>
