<svg width="28" height="28" viewBox="0 0 28 28" fill="none" xmlns="http://www.w3.org/2000/svg">
<path opacity="0.2" d="M24.4999 14C24.5015 15.4725 24.1926 16.9289 23.5933 18.2739C22.9939 19.619 22.1177 20.8226 21.0218 21.8061C20.3629 20.5101 19.3582 19.4218 18.1188 18.6618C16.8794 17.9017 15.4538 17.4996 13.9999 17.5C14.8652 17.5 15.7111 17.2434 16.4306 16.7627C17.15 16.2819 17.7108 15.5987 18.0419 14.7992C18.3731 13.9998 18.4597 13.1201 18.2909 12.2715C18.1221 11.4228 17.7054 10.6433 17.0935 10.0314C16.4817 9.41955 15.7021 9.00288 14.8535 8.83407C14.0048 8.66526 13.1251 8.75189 12.3257 9.08303C11.5263 9.41416 10.843 9.97492 10.3623 10.6944C9.88154 11.4138 9.62495 12.2597 9.62495 13.125C9.62495 14.2853 10.0859 15.3981 10.9064 16.2186C11.7268 17.0391 12.8396 17.5 13.9999 17.5C12.5461 17.4996 11.1205 17.9017 9.88112 18.6618C8.64174 19.4218 7.63695 20.5101 6.97807 21.8061C4.97375 20.0032 3.73966 17.4985 3.5314 14.8107C3.32314 12.1229 4.15666 9.45796 5.85934 7.36786C7.56201 5.27775 10.0034 3.92262 12.6778 3.58313C15.3522 3.24365 18.0547 3.94582 20.2256 5.54422C20.1166 5.85521 20.0977 6.19063 20.171 6.5119C20.2442 6.83316 20.4067 7.12722 20.6397 7.36022C20.8727 7.59322 21.1668 7.7557 21.4881 7.82897C21.8093 7.90224 22.1447 7.88332 22.4557 7.77438C23.7865 9.577 24.5031 11.7594 24.4999 14Z" fill="#86BC24"/>
<path d="M24.9648 6.89828L24.4551 6.60406C24.5149 6.28749 24.5149 5.96251 24.4551 5.64594L24.9648 5.35172C25.1658 5.23569 25.3125 5.04455 25.3726 4.82036C25.4327 4.59616 25.4013 4.35728 25.2853 4.15625C25.1692 3.95522 24.9781 3.80853 24.7539 3.74843C24.5297 3.68833 24.2908 3.71975 24.0898 3.83578L23.579 4.13109C23.3346 3.92137 23.0535 3.75859 22.75 3.65094V3.0625C22.75 2.83044 22.6578 2.60788 22.4937 2.44378C22.3296 2.27969 22.107 2.1875 21.875 2.1875C21.6429 2.1875 21.4203 2.27969 21.2562 2.44378C21.0922 2.60788 21 2.83044 21 3.0625V3.65094C20.6964 3.75859 20.4153 3.92137 20.1709 4.13109L19.6601 3.83578C19.5606 3.77833 19.4507 3.74104 19.3368 3.72605C19.2228 3.71107 19.107 3.71867 18.996 3.74843C18.885 3.77818 18.7809 3.82952 18.6898 3.89949C18.5986 3.96947 18.5221 4.05671 18.4647 4.15625C18.4072 4.25579 18.3699 4.36567 18.3549 4.47961C18.3399 4.59356 18.3475 4.70935 18.3773 4.82036C18.4071 4.93137 18.4584 5.03543 18.5284 5.1266C18.5983 5.21777 18.6856 5.29427 18.7851 5.35172L19.2948 5.64594C19.235 5.96251 19.235 6.28749 19.2948 6.60406L18.7851 6.89828C18.6182 6.99455 18.4877 7.14321 18.414 7.32121C18.3402 7.4992 18.3272 7.69657 18.3771 7.88269C18.427 8.06881 18.5369 8.23326 18.6897 8.35053C18.8426 8.4678 19.0299 8.53132 19.2226 8.53125C19.3763 8.53173 19.5272 8.49133 19.6601 8.41422L20.1709 8.11891C20.4153 8.32863 20.6964 8.49141 21 8.59906V9.1875C21 9.41956 21.0922 9.64212 21.2562 9.80622C21.4203 9.97031 21.6429 10.0625 21.875 10.0625C22.107 10.0625 22.3296 9.97031 22.4937 9.80622C22.6578 9.64212 22.75 9.41956 22.75 9.1875V8.59906C23.0535 8.49141 23.3346 8.32863 23.579 8.11891L24.0898 8.41422C24.2227 8.49133 24.3737 8.53173 24.5273 8.53125C24.72 8.53132 24.9073 8.4678 25.0602 8.35053C25.2131 8.23326 25.323 8.06881 25.3728 7.88269C25.4227 7.69657 25.4097 7.4992 25.336 7.32121C25.2622 7.14321 25.1317 6.99455 24.9648 6.89828ZM21 6.125C21 5.95194 21.0513 5.78277 21.1474 5.63888C21.2436 5.49498 21.3802 5.38283 21.5401 5.31661C21.7 5.25038 21.8759 5.23305 22.0457 5.26681C22.2154 5.30057 22.3713 5.38391 22.4937 5.50628C22.6161 5.62865 22.6994 5.78456 22.7332 5.9543C22.7669 6.12403 22.7496 6.29996 22.6834 6.45985C22.6171 6.61973 22.505 6.75639 22.3611 6.85254C22.2172 6.94868 22.048 7 21.875 7C21.6429 7 21.4203 6.90781 21.2562 6.74372C21.0922 6.57962 21 6.35706 21 6.125ZM24.2101 11.387C23.9813 11.4253 23.777 11.553 23.6422 11.7419C23.5074 11.9308 23.4532 12.1655 23.4915 12.3944C23.5804 12.925 23.625 13.462 23.625 14C23.627 16.3561 22.7611 18.6305 21.1925 20.3886C20.2166 18.9745 18.8444 17.8804 17.2484 17.2441C18.1057 16.5688 18.7313 15.6432 19.0381 14.596C19.345 13.5487 19.3179 12.4319 18.9606 11.4008C18.6033 10.3696 17.9335 9.47547 17.0445 8.84263C16.1554 8.20979 15.0912 7.86972 14 7.86972C12.9087 7.86972 11.8445 8.20979 10.9555 8.84263C10.0664 9.47547 9.39667 10.3696 9.03936 11.4008C8.68205 12.4319 8.65494 13.5487 8.96179 14.596C9.26865 15.6432 9.89423 16.5688 10.7515 17.2441C9.15555 17.8804 7.78334 18.9745 6.80747 20.3886C5.57669 19.0017 4.77273 17.2888 4.49226 15.4558C4.2118 13.6229 4.46676 11.7479 5.22649 10.0564C5.98622 8.36495 7.21839 6.92892 8.77482 5.92102C10.3313 4.91312 12.1457 4.37626 14 4.375C14.5379 4.37491 15.075 4.41955 15.6056 4.50844C15.8334 4.54439 16.0663 4.48892 16.2534 4.3541C16.4406 4.21928 16.5669 4.01601 16.605 3.78851C16.643 3.56101 16.5897 3.32769 16.4566 3.13929C16.3236 2.9509 16.1215 2.82267 15.8943 2.7825C13.5181 2.38275 11.0763 2.74852 8.9215 3.827C6.7667 4.90548 5.0104 6.64087 3.90617 8.78259C2.80194 10.9243 2.40693 13.3616 2.77818 15.7424C3.14942 18.1233 4.2677 20.3245 5.97157 22.0284C7.67543 23.7323 9.8767 24.8505 12.2576 25.2218C14.6384 25.593 17.0757 25.198 19.2174 24.0938C21.3591 22.9896 23.0945 21.2333 24.173 19.0785C25.2514 16.9237 25.6172 14.4819 25.2175 12.1056C25.1792 11.8768 25.0515 11.6725 24.8626 11.5377C24.6737 11.403 24.439 11.3488 24.2101 11.387ZM10.5 13.125C10.5 12.4328 10.7052 11.7561 11.0898 11.1805C11.4744 10.6049 12.021 10.1563 12.6606 9.89142C13.3001 9.62651 14.0038 9.5572 14.6828 9.69225C15.3617 9.8273 15.9854 10.1606 16.4748 10.6501C16.9643 11.1396 17.2977 11.7632 17.4327 12.4422C17.5678 13.1211 17.4985 13.8248 17.2335 14.4644C16.9686 15.1039 16.52 15.6506 15.9445 16.0351C15.3689 16.4197 14.6922 16.625 14 16.625C13.0717 16.625 12.1815 16.2562 11.5251 15.5999C10.8687 14.9435 10.5 14.0533 10.5 13.125ZM8.10247 21.6016C8.73546 20.6116 9.60747 19.7969 10.6381 19.2326C11.6688 18.6682 12.8249 18.3724 14 18.3724C15.175 18.3724 16.3311 18.6682 17.3618 19.2326C18.3925 19.7969 19.2645 20.6116 19.8975 21.6016C18.2113 22.913 16.1361 23.6249 14 23.6249C11.8638 23.6249 9.78866 22.913 8.10247 21.6016Z" fill="#86BC24"/>
</svg>
