<svg width="28" height="29" viewBox="0 0 28 29" fill="none" xmlns="http://www.w3.org/2000/svg">
<path opacity="0.2" d="M24.5 14.1997C24.5016 15.6723 24.1926 17.1286 23.5933 18.4737C22.994 19.8187 22.1178 21.0223 21.0219 22.0058C20.363 20.7098 19.3582 19.6216 18.1188 18.8615C16.8795 18.1015 15.4539 17.6994 14 17.6997C14.8653 17.6997 15.7112 17.4432 16.4306 16.9624C17.1501 16.4817 17.7108 15.7984 18.042 14.999C18.3731 14.1996 18.4597 13.3199 18.2909 12.4712C18.1221 11.6226 17.7054 10.843 17.0936 10.2312C16.4817 9.6193 15.7022 9.20262 14.8535 9.03381C14.0049 8.865 13.1252 8.95164 12.3258 9.28277C11.5263 9.6139 10.8431 10.1747 10.3623 10.8941C9.88159 11.6136 9.625 12.4595 9.625 13.3247C9.625 14.4851 10.0859 15.5979 10.9064 16.4183C11.7269 17.2388 12.8397 17.6997 14 17.6997C12.5461 17.6994 11.1206 18.1015 9.88118 18.8615C8.6418 19.6216 7.63701 20.7098 6.97813 22.0058C5.67684 20.8354 4.68879 19.3582 4.10382 17.7086C3.51884 16.059 3.35551 14.2893 3.62866 12.5605C3.90182 10.8317 4.6028 9.19862 5.66787 7.80974C6.73293 6.42085 8.12829 5.32024 9.72705 4.60798C11.3258 3.89572 13.0773 3.59441 14.8221 3.73146C16.567 3.8685 18.2499 4.43954 19.7179 5.39266C21.1859 6.34578 22.3923 7.65074 23.2275 9.18887C24.0627 10.727 24.5001 12.4495 24.5 14.1997Z" fill="#137337"/>
<path d="M24.2102 11.5868C23.9813 11.6251 23.777 11.7527 23.6422 11.9416C23.5075 12.1305 23.4533 12.3652 23.4916 12.5941C23.5804 13.1247 23.625 13.6617 23.625 14.1997C23.6271 16.5559 22.7611 18.8302 21.1925 20.5883C20.2166 19.1742 18.8444 18.0801 17.2484 17.4438C18.1057 16.7686 18.7313 15.843 19.0382 14.7957C19.345 13.7484 19.3179 12.6316 18.9606 11.6005C18.6033 10.5693 17.9335 9.67519 17.0445 9.04235C16.1554 8.40951 15.0913 8.06944 14 8.06944C12.9087 8.06944 11.8446 8.40951 10.9555 9.04235C10.0665 9.67519 9.3967 10.5693 9.03939 11.6005C8.68208 12.6316 8.65497 13.7484 8.96183 14.7957C9.26869 15.843 9.89426 16.7686 10.7516 17.4438C9.15558 18.0801 7.78338 19.1742 6.8075 20.5883C5.57672 19.2014 4.77276 17.4885 4.4923 15.6555C4.21183 13.8226 4.46679 11.9477 5.22652 10.2562C5.98626 8.56467 7.21842 7.12864 8.77485 6.12074C10.3313 5.11284 12.1457 4.57598 14 4.57472C14.538 4.57463 15.075 4.61927 15.6056 4.70816C15.8335 4.74411 16.0663 4.68864 16.2534 4.55382C16.4406 4.419 16.5669 4.21573 16.605 3.98823C16.6431 3.76073 16.5898 3.52741 16.4567 3.33901C16.3236 3.15062 16.1215 3.02239 15.8944 2.98222C13.5181 2.58247 11.0763 2.94824 8.92154 4.02672C6.76673 5.1052 5.01043 6.84059 3.9062 8.98231C2.80197 11.124 2.40696 13.5613 2.77821 15.9421C3.14945 18.323 4.26773 20.5243 5.9716 22.2281C7.67546 23.932 9.87673 25.0503 12.2576 25.4215C14.6384 25.7928 17.0757 25.3977 19.2174 24.2935C21.3591 23.1893 23.0945 21.433 24.173 19.2782C25.2515 17.1234 25.6172 14.6816 25.2175 12.3053C25.1792 12.0765 25.0516 11.8722 24.8626 11.7374C24.6737 11.6027 24.439 11.5485 24.2102 11.5868ZM10.5 13.3247C10.5 12.6325 10.7053 11.9558 11.0899 11.3802C11.4744 10.8047 12.0211 10.356 12.6606 10.0911C13.3001 9.82623 14.0039 9.75692 14.6828 9.89197C15.3617 10.027 15.9854 10.3604 16.4749 10.8498C16.9644 11.3393 17.2977 11.963 17.4327 12.6419C17.5678 13.3208 17.4985 14.0246 17.2336 14.6641C16.9687 15.3037 16.5201 15.8503 15.9445 16.2349C15.3689 16.6194 14.6922 16.8247 14 16.8247C13.0717 16.8247 12.1815 16.456 11.5251 15.7996C10.8687 15.1432 10.5 14.253 10.5 13.3247ZM8.1025 21.8013C8.73549 20.8113 9.6075 19.9966 10.6382 19.4323C11.6688 18.868 12.825 18.5722 14 18.5722C15.175 18.5722 16.3312 18.868 17.3618 19.4323C18.3925 19.9966 19.2645 20.8113 19.8975 21.8013C18.2113 23.1127 16.1361 23.8246 14 23.8246C11.8639 23.8246 9.78869 23.1127 8.1025 21.8013ZM25.9941 5.19378L22.4941 8.69378C22.4128 8.77514 22.3163 8.83968 22.2101 8.88371C22.1038 8.92774 21.99 8.95041 21.875 8.95041C21.76 8.95041 21.6461 8.92774 21.5399 8.88371C21.4337 8.83968 21.3372 8.77514 21.2559 8.69378L19.5059 6.94378C19.4246 6.86249 19.3602 6.76597 19.3162 6.65975C19.2722 6.55353 19.2495 6.43969 19.2495 6.32472C19.2495 6.20975 19.2722 6.0959 19.3162 5.98969C19.3602 5.88347 19.4246 5.78695 19.5059 5.70566C19.6701 5.54147 19.8928 5.44923 20.125 5.44923C20.24 5.44923 20.3538 5.47188 20.46 5.51588C20.5663 5.55987 20.6628 5.62436 20.7441 5.70566L21.875 6.83769L24.7559 3.95566C24.8372 3.87436 24.9337 3.80987 25.04 3.76588C25.1462 3.72188 25.26 3.69923 25.375 3.69923C25.49 3.69923 25.6038 3.72188 25.71 3.76588C25.8163 3.80987 25.9128 3.87436 25.9941 3.95566C26.0754 4.03695 26.1398 4.13347 26.1838 4.23969C26.2278 4.3459 26.2505 4.45975 26.2505 4.57472C26.2505 4.68969 26.2278 4.80353 26.1838 4.90975C26.1398 5.01597 26.0754 5.11249 25.9941 5.19378Z" fill="#137337"/>
</svg>
