<svg width="28" height="28" viewBox="0 0 28 28" fill="none" xmlns="http://www.w3.org/2000/svg">
<path opacity="0.2" d="M26.425 13.125V20.125C26.425 20.3571 26.3329 20.5796 26.1688 20.7437C26.0047 20.9078 25.7821 21 25.55 21H22.925C22.9251 20.58 22.8244 20.1662 22.6313 19.7932C22.4383 19.4202 22.1586 19.099 21.8157 18.8565C21.4728 18.614 21.0767 18.4573 20.6608 18.3996C20.2448 18.3419 19.821 18.3849 19.425 18.5248C18.9132 18.7058 18.4701 19.041 18.1567 19.4843C17.8433 19.9276 17.675 20.4571 17.675 21H10.675C10.675 20.3038 10.3985 19.6361 9.9062 19.1438C9.41392 18.6516 8.74624 18.375 8.05005 18.375C7.35386 18.375 6.68618 18.6516 6.19389 19.1438C5.70161 19.6361 5.42505 20.3038 5.42505 21H2.80005C2.56798 21 2.34542 20.9078 2.18133 20.7437C2.01724 20.5796 1.92505 20.3571 1.92505 20.125L1.92505 7.875C1.92505 7.64294 2.01724 7.42038 2.18133 7.25628C2.34542 7.09219 2.56798 7 2.80005 7L19.425 7V13.125L26.425 13.125Z" fill="#137337"/>
<path d="M7.69995 11.8999C7.69995 11.6678 7.79214 11.4453 7.95623 11.2812C8.12033 11.1171 8.34289 11.0249 8.57495 11.0249H10.325V9.2749C10.325 9.04284 10.4171 8.82028 10.5812 8.65618C10.7453 8.49209 10.9679 8.3999 11.2 8.3999C11.432 8.3999 11.6546 8.49209 11.8187 8.65618C11.9828 8.82028 12.075 9.04284 12.075 9.2749V11.0249L13.825 11.0249C14.057 11.0249 14.2796 11.1171 14.4437 11.2812C14.6078 11.4453 14.7 11.6678 14.7 11.8999C14.7 12.132 14.6078 12.3545 14.4437 12.5186C14.2796 12.6827 14.057 12.7749 13.825 12.7749L12.075 12.7749L12.075 14.5249C12.075 14.757 11.9828 14.9795 11.8187 15.1436C11.6546 15.3077 11.432 15.3999 11.2 15.3999C10.9679 15.3999 10.7453 15.3077 10.5812 15.1436C10.4171 14.9795 10.325 14.757 10.325 14.5249L10.325 12.7749H8.57495C8.34289 12.7749 8.12033 12.6827 7.95623 12.5186C7.79214 12.3545 7.69995 12.132 7.69995 11.8999ZM26.95 11.8999V18.8999C26.95 19.364 26.7656 19.8092 26.4374 20.1373C26.1092 20.4655 25.6641 20.6499 25.2 20.6499L23.3406 20.6499C23.1478 21.4028 22.71 22.0701 22.0961 22.5466C21.4821 23.0231 20.7271 23.2818 19.95 23.2818C19.1728 23.2818 18.4178 23.0231 17.8038 22.5466C17.1899 22.0701 16.7521 21.4028 16.5593 20.6499H11.0906C10.8978 21.4028 10.46 22.0701 9.84606 22.5466C9.23215 23.0231 8.4771 23.2818 7.69995 23.2818C6.9228 23.2818 6.16776 23.0231 5.55385 22.5466C4.93994 22.0701 4.50209 21.4028 4.30933 20.6499H2.44995C1.98582 20.6499 1.5407 20.4655 1.21251 20.1373C0.884326 19.8092 0.699951 19.364 0.699951 18.8999L0.699951 6.6499C0.699951 6.18577 0.884326 5.74065 1.21251 5.41247C1.5407 5.08428 1.98582 4.8999 2.44995 4.8999L19.075 4.8999C19.307 4.8999 19.5296 4.99209 19.6937 5.15618C19.8578 5.32028 19.95 5.54284 19.95 5.7749V6.6499L23.7321 6.6499C24.0822 6.64878 24.4246 6.75316 24.7145 6.94943C25.0044 7.14569 25.2284 7.42475 25.3575 7.75021L26.8887 11.5783C26.9294 11.6807 26.9502 11.7898 26.95 11.8999ZM19.95 8.3999V11.0249L24.7821 11.0249L23.7321 8.3999L19.95 8.3999ZM2.44995 18.8999H4.30933C4.50209 18.147 4.93994 17.4797 5.55385 17.0032C6.16776 16.5267 6.9228 16.268 7.69995 16.268C8.4771 16.268 9.23215 16.5267 9.84606 17.0032C10.46 17.4797 10.8978 18.147 11.0906 18.8999H16.5593C16.6767 18.4502 16.8822 18.0283 17.1638 17.6587C17.4454 17.289 17.7976 16.9789 18.2 16.7463V6.6499L2.44995 6.6499L2.44995 18.8999ZM9.44995 19.7749C9.44995 19.4288 9.34732 19.0904 9.15502 18.8027C8.96273 18.5149 8.68942 18.2906 8.36965 18.1581C8.04988 18.0257 7.69801 17.991 7.35854 18.0585C7.01908 18.1261 6.70726 18.2927 6.46251 18.5375C6.21777 18.7822 6.0511 19.094 5.98358 19.4335C5.91605 19.773 5.95071 20.1248 6.08316 20.4446C6.21562 20.7644 6.43992 21.0377 6.7277 21.23C7.01549 21.4223 7.35383 21.5249 7.69995 21.5249C8.16408 21.5249 8.6092 21.3405 8.93739 21.0123C9.26558 20.6842 9.44995 20.239 9.44995 19.7749ZM21.7 19.7749C21.7 19.4288 21.5973 19.0904 21.405 18.8027C21.2127 18.5149 20.9394 18.2906 20.6196 18.1581C20.2999 18.0257 19.948 17.991 19.6085 18.0585C19.2691 18.1261 18.9573 18.2927 18.7125 18.5375C18.4678 18.7822 18.3011 19.094 18.2336 19.4335C18.1661 19.773 18.2007 20.1248 18.3332 20.4446C18.4656 20.7644 18.6899 21.0377 18.9777 21.23C19.2655 21.4223 19.6038 21.5249 19.95 21.5249C20.4141 21.5249 20.8592 21.3405 21.1874 21.0123C21.5156 20.6842 21.7 20.239 21.7 19.7749ZM25.2 18.8999V12.7749L19.95 12.7749V16.2749C20.7259 16.2756 21.4797 16.5337 22.0933 17.0087C22.7068 17.4838 23.1455 18.1489 23.3406 18.8999L25.2 18.8999Z" fill="#137337"/>
</svg>
