<svg width="28" height="29" viewBox="0 0 28 29" fill="none" xmlns="http://www.w3.org/2000/svg">
<path opacity="0.2" d="M26.25 10.2061V19.3936C26.25 19.5836 26.188 19.7685 26.0736 19.9203C25.9591 20.072 25.7984 20.1824 25.6156 20.2346L14 23.5498V6.0498L25.6156 9.36824C25.7978 9.42036 25.9582 9.53022 26.0726 9.68131C26.187 9.8324 26.2493 10.0165 26.25 10.2061Z" fill="#137337"/>
<path d="M25.8562 8.52711L14.2406 5.20867C14.1223 5.17477 13.9982 5.1662 13.8764 5.18351L2.37781 6.82633C1.96148 6.88756 1.5809 7.09604 1.30516 7.41392C1.02942 7.73181 0.876802 8.13802 0.875 8.55883V21.0407C0.876802 21.4615 1.02942 21.8677 1.30516 22.1856C1.5809 22.5035 1.96148 22.712 2.37781 22.7732L13.8764 24.4138C13.9173 24.4202 13.9586 24.4239 14 24.4248C14.0814 24.4249 14.1624 24.4135 14.2406 24.3909L25.8562 21.0724C26.2206 20.9669 26.541 20.7464 26.7696 20.4438C26.9983 20.1412 27.123 19.7728 27.125 19.3935V10.206C27.123 9.82674 26.9983 9.4583 26.7696 9.1557C26.541 8.85311 26.2206 8.6326 25.8562 8.52711ZM10.5 13.9248H8.75V7.68383L13.125 7.0582V22.5413L8.75 21.9157V15.6748H10.5C10.7321 15.6748 10.9546 15.5826 11.1187 15.4185C11.2828 15.2544 11.375 15.0318 11.375 14.7998C11.375 14.5677 11.2828 14.3451 11.1187 14.181C10.9546 14.017 10.7321 13.9248 10.5 13.9248ZM2.625 8.55883L7 7.9332V13.9248H5.25C5.01794 13.9248 4.79538 14.017 4.63128 14.181C4.46719 14.3451 4.375 14.5677 4.375 14.7998C4.375 15.0318 4.46719 15.2544 4.63128 15.4185C4.79538 15.5826 5.01794 15.6748 5.25 15.6748H7V21.6663L2.625 21.0407V8.55883ZM14.875 22.3893V7.21023L25.375 10.206V19.3935L14.875 22.3893Z" fill="#137337"/>
</svg>
