<svg width="40" height="40" viewBox="0 0 40 40" fill="none" xmlns="http://www.w3.org/2000/svg">
<path opacity="0.2" d="M37.5 17.5V22.5C37.5 23.163 37.2366 23.7989 36.7678 24.2678C36.2989 24.7366 35.663 25 35 25H33.75L30.9219 32.9203C30.8351 33.1633 30.6753 33.3735 30.4644 33.522C30.2535 33.6705 30.0017 33.7502 29.7438 33.75H27.7563C27.4983 33.7502 27.2465 33.6705 27.0356 33.522C26.8247 33.3735 26.6649 33.1633 26.5781 32.9203L25.9828 31.25H15.2672L14.6719 32.9203C14.5851 33.1633 14.4253 33.3735 14.2144 33.522C14.0035 33.6705 13.7517 33.7502 13.4938 33.75H11.5063C11.2483 33.7502 10.9965 33.6705 10.7856 33.522C10.5747 33.3735 10.4149 33.1633 10.3281 32.9203L8.28126 27.1875C6.16773 24.8862 4.99652 21.8745 5.00001 18.75C5.00001 15.4348 6.31697 12.2554 8.66117 9.91117C11.0054 7.56696 14.1848 6.25 17.5 6.25H22.5C24.9392 6.24929 27.3253 6.96226 29.3643 8.30103C31.4033 9.63981 33.006 11.5459 33.975 13.7844C34.1464 14.1817 34.2977 14.5874 34.4281 15H35C35.663 15 36.2989 15.2634 36.7678 15.7322C37.2366 16.2011 37.5 16.837 37.5 17.5Z" fill="#86BC24"/>
<path d="M30 18.125C30 18.4958 29.89 18.8584 29.684 19.1667C29.478 19.475 29.1851 19.7154 28.8425 19.8573C28.4999 19.9992 28.1229 20.0363 27.7592 19.964C27.3955 19.8916 27.0614 19.713 26.7992 19.4508C26.537 19.1886 26.3584 18.8545 26.286 18.4908C26.2137 18.1271 26.2508 17.7501 26.3927 17.4075C26.5346 17.0649 26.775 16.772 27.0833 16.566C27.3917 16.36 27.7542 16.25 28.125 16.25C28.6223 16.25 29.0992 16.4475 29.4508 16.7992C29.8025 17.1508 30 17.6277 30 18.125ZM23.75 10H17.5C17.1685 10 16.8505 10.1317 16.6161 10.3661C16.3817 10.6005 16.25 10.9185 16.25 11.25C16.25 11.5815 16.3817 11.8995 16.6161 12.1339C16.8505 12.3683 17.1685 12.5 17.5 12.5H23.75C24.0815 12.5 24.3995 12.3683 24.6339 12.1339C24.8683 11.8995 25 11.5815 25 11.25C25 10.9185 24.8683 10.6005 24.6339 10.3661C24.3995 10.1317 24.0815 10 23.75 10ZM38.75 17.5V22.5C38.75 23.4946 38.3549 24.4484 37.6517 25.1517C36.9484 25.8549 35.9946 26.25 35 26.25H34.6313L32.0984 33.3406C31.925 33.8263 31.6057 34.2465 31.1841 34.5435C30.7626 34.8406 30.2595 35.0001 29.7438 35H27.7563C27.2405 35.0001 26.7374 34.8406 26.3159 34.5435C25.8943 34.2465 25.575 33.8263 25.4016 33.3406L25.1016 32.5H16.1484L15.8484 33.3406C15.675 33.8263 15.3557 34.2465 14.9341 34.5435C14.5126 34.8406 14.0095 35.0001 13.4938 35H11.5063C10.9905 35.0001 10.4874 34.8406 10.0659 34.5435C9.64434 34.2465 9.32497 33.8263 9.15156 33.3406L7.1875 27.8469C5.31903 25.7322 4.14908 23.0921 3.8375 20.2875C3.4341 20.4994 3.09628 20.8175 2.86055 21.2074C2.62482 21.5974 2.50014 22.0443 2.5 22.5C2.5 22.8315 2.3683 23.1495 2.13388 23.3839C1.89946 23.6183 1.58152 23.75 1.25 23.75C0.91848 23.75 0.600537 23.6183 0.366117 23.3839C0.131696 23.1495 0 22.8315 0 22.5C0.00190997 21.3853 0.376285 20.3031 1.06365 19.4255C1.75101 18.5479 2.71193 17.9252 3.79375 17.6562C4.073 14.2114 5.63753 10.9976 8.17669 8.65301C10.7158 6.30837 14.0439 5.00439 17.5 5H33.75C34.0815 5 34.3995 5.1317 34.6339 5.36612C34.8683 5.60054 35 5.91848 35 6.25C35 6.58152 34.8683 6.89946 34.6339 7.13388C34.3995 7.3683 34.0815 7.5 33.75 7.5H30.4078C32.4823 8.95546 34.1138 10.9563 35.1219 13.2812C35.1891 13.4375 35.2547 13.5938 35.3172 13.75C36.2558 13.8297 37.13 14.2597 37.7661 14.9545C38.4021 15.6493 38.7534 16.558 38.75 17.5ZM36.25 17.5C36.25 17.1685 36.1183 16.8505 35.8839 16.6161C35.6495 16.3817 35.3315 16.25 35 16.25H34.4281C34.1619 16.2503 33.9025 16.1656 33.6878 16.0082C33.4731 15.8508 33.3142 15.629 33.2344 15.375C32.5182 13.0896 31.0904 11.0928 29.1593 9.67617C27.2283 8.25949 24.895 7.49701 22.5 7.5H17.5C15.3167 7.49989 13.1806 8.13505 11.3521 9.32803C9.52364 10.521 8.08178 12.2203 7.20239 14.2186C6.32299 16.2169 6.04405 18.4279 6.39959 20.582C6.75513 22.7362 7.72978 24.7403 9.20469 26.35C9.31747 26.4727 9.4046 26.6166 9.46094 26.7734L11.5063 32.5H13.4938L14.0906 30.8297C14.1773 30.587 14.3368 30.377 14.5475 30.2285C14.7581 30.0799 15.0095 30.0001 15.2672 30H25.9828C26.2405 30.0001 26.4919 30.0799 26.7025 30.2285C26.9132 30.377 27.0727 30.587 27.1594 30.8297L27.7563 32.5H29.7438L32.5734 24.5797C32.6601 24.337 32.8197 24.127 33.0303 23.9785C33.2409 23.8299 33.4923 23.7501 33.75 23.75H35C35.3315 23.75 35.6495 23.6183 35.8839 23.3839C36.1183 23.1495 36.25 22.8315 36.25 22.5V17.5Z" fill="#137337"/>
</svg>
