<svg width="28" height="29" viewBox="0 0 28 29" fill="none" xmlns="http://www.w3.org/2000/svg">
<path opacity="0.2" d="M25.375 18.1001H2.625L5.08484 8.26291C5.13216 8.07361 5.24139 7.90556 5.39518 7.78547C5.54896 7.66537 5.73847 7.60013 5.93359 7.6001H22.0664C22.2615 7.60013 22.451 7.66537 22.6048 7.78547C22.7586 7.90556 22.8678 8.07361 22.9152 8.26291L25.375 18.1001Z" fill="#137337"/>
<path d="M26.2237 17.8879L23.765 8.05072C23.6703 7.67195 23.4517 7.33571 23.1439 7.0955C22.8361 6.8553 22.4568 6.72491 22.0664 6.7251H14.875V4.9751C14.875 4.51097 14.6906 4.06585 14.3624 3.73766C14.0342 3.40947 13.5891 3.2251 13.125 3.2251H8.75C8.28587 3.2251 7.84075 3.40947 7.51256 3.73766C7.18437 4.06585 7 4.51097 7 4.9751V6.7251H5.93359C5.54316 6.72491 5.16389 6.8553 4.85609 7.0955C4.5483 7.33571 4.32968 7.67195 4.235 8.05072L1.77625 17.8879C1.75878 17.9573 1.74997 18.0286 1.75 18.1001V21.6001C1.75 22.0642 1.93437 22.5093 2.26256 22.8375C2.59075 23.1657 3.03587 23.3501 3.5 23.3501H24.5C24.9641 23.3501 25.4092 23.1657 25.7374 22.8375C26.0656 22.5093 26.25 22.0642 26.25 21.6001V18.1001C26.25 18.0286 26.2412 17.9573 26.2237 17.8879ZM8.75 4.9751H13.125V6.7251H8.75V4.9751ZM5.93359 8.4751H22.0664L24.2539 17.2251H3.74609L5.93359 8.4751ZM3.5 21.6001V18.9751H24.5V21.6001H3.5ZM7 11.1001C7 10.868 7.09219 10.6455 7.25628 10.4814C7.42038 10.3173 7.64294 10.2251 7.875 10.2251H9.625C9.85706 10.2251 10.0796 10.3173 10.2437 10.4814C10.4078 10.6455 10.5 10.868 10.5 11.1001C10.5 11.3322 10.4078 11.5547 10.2437 11.7188C10.0796 11.8829 9.85706 11.9751 9.625 11.9751H7.875C7.64294 11.9751 7.42038 11.8829 7.25628 11.7188C7.09219 11.5547 7 11.3322 7 11.1001ZM12.25 11.1001C12.25 10.868 12.3422 10.6455 12.5063 10.4814C12.6704 10.3173 12.8929 10.2251 13.125 10.2251H14.875C15.1071 10.2251 15.3296 10.3173 15.4937 10.4814C15.6578 10.6455 15.75 10.868 15.75 11.1001C15.75 11.3322 15.6578 11.5547 15.4937 11.7188C15.3296 11.8829 15.1071 11.9751 14.875 11.9751H13.125C12.8929 11.9751 12.6704 11.8829 12.5063 11.7188C12.3422 11.5547 12.25 11.3322 12.25 11.1001ZM17.5 11.1001C17.5 10.868 17.5922 10.6455 17.7563 10.4814C17.9204 10.3173 18.1429 10.2251 18.375 10.2251H20.125C20.3571 10.2251 20.5796 10.3173 20.7437 10.4814C20.9078 10.6455 21 10.868 21 11.1001C21 11.3322 20.9078 11.5547 20.7437 11.7188C20.5796 11.8829 20.3571 11.9751 20.125 11.9751H18.375C18.1429 11.9751 17.9204 11.8829 17.7563 11.7188C17.5922 11.5547 17.5 11.3322 17.5 11.1001ZM7 14.6001C7 14.368 7.09219 14.1455 7.25628 13.9814C7.42038 13.8173 7.64294 13.7251 7.875 13.7251H9.625C9.85706 13.7251 10.0796 13.8173 10.2437 13.9814C10.4078 14.1455 10.5 14.368 10.5 14.6001C10.5 14.8322 10.4078 15.0547 10.2437 15.2188C10.0796 15.3829 9.85706 15.4751 9.625 15.4751H7.875C7.64294 15.4751 7.42038 15.3829 7.25628 15.2188C7.09219 15.0547 7 14.8322 7 14.6001ZM12.25 14.6001C12.25 14.368 12.3422 14.1455 12.5063 13.9814C12.6704 13.8173 12.8929 13.7251 13.125 13.7251H14.875C15.1071 13.7251 15.3296 13.8173 15.4937 13.9814C15.6578 14.1455 15.75 14.368 15.75 14.6001C15.75 14.8322 15.6578 15.0547 15.4937 15.2188C15.3296 15.3829 15.1071 15.4751 14.875 15.4751H13.125C12.8929 15.4751 12.6704 15.3829 12.5063 15.2188C12.3422 15.0547 12.25 14.8322 12.25 14.6001ZM17.5 14.6001C17.5 14.368 17.5922 14.1455 17.7563 13.9814C17.9204 13.8173 18.1429 13.7251 18.375 13.7251H20.125C20.3571 13.7251 20.5796 13.8173 20.7437 13.9814C20.9078 14.1455 21 14.368 21 14.6001C21 14.8322 20.9078 15.0547 20.7437 15.2188C20.5796 15.3829 20.3571 15.4751 20.125 15.4751H18.375C18.1429 15.4751 17.9204 15.3829 17.7563 15.2188C17.5922 15.0547 17.5 14.8322 17.5 14.6001Z" fill="#137337"/>
</svg>
