<svg width="28" height="29" viewBox="0 0 28 29" fill="none" xmlns="http://www.w3.org/2000/svg">
<path opacity="0.2" d="M24.4999 14.3999C24.5015 15.8724 24.1926 17.3288 23.5932 18.6738C22.9939 20.0189 22.1177 21.2225 21.0218 22.206C20.3629 20.91 19.3581 19.8217 18.1188 19.0617C16.8794 18.3016 15.4538 17.8995 13.9999 17.8999C14.8652 17.8999 15.7111 17.6433 16.4306 17.1626C17.15 16.6819 17.7108 15.9986 18.0419 15.1991C18.373 14.3997 18.4597 13.5201 18.2909 12.6714C18.1221 11.8227 17.7054 11.0432 17.0935 10.4313C16.4817 9.81946 15.7021 9.40278 14.8535 9.23397C14.0048 9.06516 13.1251 9.1518 12.3257 9.48293C11.5263 9.81406 10.843 10.3748 10.3623 11.0943C9.88153 11.8137 9.62494 12.6596 9.62494 13.5249C9.62494 14.6852 10.0859 15.798 10.9064 16.6185C11.7268 17.439 12.8396 17.8999 13.9999 17.8999C12.5461 17.8995 11.1205 18.3016 9.88112 19.0617C8.64174 19.8217 7.63695 20.91 6.97807 22.206C4.97375 20.4031 3.73966 17.8984 3.5314 15.2106C3.32314 12.5228 4.15666 9.85787 5.85934 7.76776C7.56201 5.67765 10.0034 4.32252 12.6778 3.98304C15.3522 3.64355 18.0547 4.34572 20.2256 5.94412C20.1166 6.25511 20.0977 6.59053 20.171 6.9118C20.2442 7.23307 20.4067 7.52712 20.6397 7.76012C20.8727 7.99312 21.1668 8.15561 21.488 8.22887C21.8093 8.30214 22.1447 8.28322 22.4557 8.17428C23.7865 9.9769 24.5031 12.1593 24.4999 14.3999Z" fill="#137337"/>
<path d="M24.9648 7.29818L24.4551 7.00397C24.5149 6.68739 24.5149 6.36242 24.4551 6.04584L24.9648 5.75162C25.1658 5.63559 25.3125 5.44445 25.3726 5.22026C25.4327 4.99606 25.4013 4.75718 25.2853 4.55615C25.1692 4.35513 24.9781 4.20843 24.7539 4.14833C24.5297 4.08823 24.2908 4.11965 24.0898 4.23568L23.579 4.531C23.3346 4.32128 23.0535 4.1585 22.75 4.05084V3.4624C22.75 3.23034 22.6578 3.00778 22.4937 2.84368C22.3296 2.67959 22.107 2.5874 21.875 2.5874C21.6429 2.5874 21.4203 2.67959 21.2562 2.84368C21.0922 3.00778 21 3.23034 21 3.4624V4.05084C20.6964 4.1585 20.4153 4.32128 20.1709 4.531L19.6601 4.23568C19.5606 4.17823 19.4507 4.14095 19.3368 4.12596C19.2228 4.11097 19.107 4.11857 18.996 4.14833C18.885 4.17809 18.7809 4.22942 18.6898 4.29939C18.5986 4.36937 18.5221 4.45661 18.4647 4.55615C18.4072 4.65569 18.3699 4.76557 18.3549 4.87952C18.3399 4.99346 18.3475 5.10925 18.3773 5.22026C18.4071 5.33127 18.4584 5.43533 18.5284 5.5265C18.5983 5.61767 18.6856 5.69417 18.7851 5.75162L19.2948 6.04584C19.235 6.36242 19.235 6.68739 19.2948 7.00397L18.7851 7.29818C18.6182 7.39445 18.4877 7.54312 18.414 7.72111C18.3402 7.89911 18.3272 8.09648 18.3771 8.28259C18.427 8.46871 18.5369 8.63316 18.6897 8.75043C18.8426 8.8677 19.0299 8.93123 19.2226 8.93115C19.3763 8.93163 19.5272 8.89124 19.6601 8.81412L20.1709 8.51881C20.4153 8.72853 20.6964 8.89131 21 8.99897V9.5874C21 9.81947 21.0922 10.042 21.2562 10.2061C21.4203 10.3702 21.6429 10.4624 21.875 10.4624C22.107 10.4624 22.3296 10.3702 22.4937 10.2061C22.6578 10.042 22.75 9.81947 22.75 9.5874V8.99897C23.0535 8.89131 23.3346 8.72853 23.579 8.51881L24.0898 8.81412C24.2227 8.89124 24.3737 8.93163 24.5273 8.93115C24.72 8.93123 24.9073 8.8677 25.0602 8.75043C25.2131 8.63316 25.323 8.46871 25.3728 8.28259C25.4227 8.09648 25.4097 7.89911 25.336 7.72111C25.2622 7.54312 25.1317 7.39445 24.9648 7.29818ZM21 6.5249C21 6.35184 21.0513 6.18267 21.1474 6.03878C21.2436 5.89489 21.3802 5.78273 21.5401 5.71651C21.7 5.65028 21.8759 5.63295 22.0457 5.66672C22.2154 5.70048 22.3713 5.78381 22.4937 5.90618C22.6161 6.02856 22.6994 6.18447 22.7332 6.3542C22.7669 6.52393 22.7496 6.69987 22.6834 6.85975C22.6171 7.01964 22.505 7.15629 22.3611 7.25244C22.2172 7.34859 22.048 7.3999 21.875 7.3999C21.6429 7.3999 21.4203 7.30772 21.2562 7.14362C21.0922 6.97953 21 6.75697 21 6.5249ZM24.2101 11.7869C23.9813 11.8252 23.777 11.9529 23.6422 12.1418C23.5074 12.3307 23.4532 12.5654 23.4915 12.7943C23.5804 13.3249 23.625 13.8619 23.625 14.3999C23.627 16.7561 22.7611 19.0304 21.1925 20.7885C20.2166 19.3744 18.8444 18.2803 17.2484 17.644C18.1057 16.9687 18.7313 16.0431 19.0381 14.9959C19.345 13.9486 19.3179 12.8318 18.9606 11.8007C18.6033 10.7695 17.9335 9.87537 17.0445 9.24253C16.1554 8.60969 15.0912 8.26963 14 8.26963C12.9087 8.26963 11.8445 8.60969 10.9555 9.24253C10.0664 9.87537 9.39667 10.7695 9.03936 11.8007C8.68205 12.8318 8.65494 13.9486 8.96179 14.9959C9.26865 16.0431 9.89423 16.9687 10.7515 17.644C9.15555 18.2803 7.78334 19.3744 6.80747 20.7885C5.57669 19.4016 4.77273 17.6887 4.49226 15.8557C4.2118 14.0228 4.46676 12.1478 5.22649 10.4564C5.98622 8.76486 7.21839 7.32882 8.77482 6.32092C10.3313 5.31302 12.1457 4.77617 14 4.7749C14.5379 4.77482 15.075 4.81945 15.6056 4.90834C15.8334 4.94429 16.0663 4.88882 16.2534 4.754C16.4406 4.61918 16.5669 4.41591 16.605 4.18841C16.643 3.96092 16.5897 3.72759 16.4566 3.5392C16.3236 3.3508 16.1215 3.22257 15.8943 3.1824C13.5181 2.78265 11.0763 3.14842 8.9215 4.22691C6.7667 5.30539 5.0104 7.04077 3.90617 9.18249C2.80194 11.3242 2.40693 13.7615 2.77818 16.1423C3.14942 18.5232 4.2677 20.7244 5.97157 22.4283C7.67543 24.1322 9.8767 25.2505 12.2576 25.6217C14.6384 25.9929 17.0757 25.5979 19.2174 24.4937C21.3591 23.3895 23.0945 21.6332 24.173 19.4784C25.2514 17.3236 25.6172 14.8818 25.2175 12.5055C25.1792 12.2767 25.0515 12.0724 24.8626 11.9376C24.6737 11.8029 24.439 11.7487 24.2101 11.7869ZM10.5 13.5249C10.5 12.8327 10.7052 12.156 11.0898 11.5804C11.4744 11.0048 12.021 10.5562 12.6606 10.2913C13.3001 10.0264 14.0038 9.95711 14.6828 10.0922C15.3617 10.2272 15.9854 10.5605 16.4748 11.05C16.9643 11.5395 17.2977 12.1632 17.4327 12.8421C17.5678 13.521 17.4985 14.2248 17.2335 14.8643C16.9686 15.5038 16.52 16.0505 15.9445 16.435C15.3689 16.8196 14.6922 17.0249 14 17.0249C13.0717 17.0249 12.1815 16.6562 11.5251 15.9998C10.8687 15.3434 10.5 14.4532 10.5 13.5249ZM8.10247 22.0015C8.73546 21.0115 9.60747 20.1968 10.6381 19.6325C11.6688 19.0681 12.8249 18.7723 14 18.7723C15.175 18.7723 16.3311 19.0681 17.3618 19.6325C18.3925 20.1968 19.2645 21.0115 19.8975 22.0015C18.2113 23.3129 16.1361 24.0248 14 24.0248C11.8638 24.0248 9.78866 23.3129 8.10247 22.0015Z" fill="#137337"/>
</svg>
